<?xml version="1.0" encoding="utf-8"?>
<!-- Generator: Adobe Illustrator 16.0.0, SVG Export Plug-In . SVG Version: 6.00 Build 0)  -->
<!DOCTYPE svg PUBLIC "-//W3C//DTD SVG 1.1//EN" "http://www.w3.org/Graphics/SVG/1.1/DTD/svg11.dtd">
<svg version="1.1" id="Layer_1" xmlns="http://www.w3.org/2000/svg" xmlns:xlink="http://www.w3.org/1999/xlink" x="0px" y="0px"
	 width="114.286px" height="255.782px" viewBox="0 0 114.286 255.782" enable-background="new 0 0 114.286 255.782"
	 xml:space="preserve">
<path fill-rule="evenodd" clip-rule="evenodd" fill="#E98024" d="M37.346,70.506h46.883c-1.727,12.014-7.338,26.297-2.266,37.158
	c3.359,7.188,7.631,12.134,7.748,17.416H31.868c0.105-6.918,4.378-10.411,9.318-17.405C48.481,97.348,39.24,83.676,37.346,70.506z"
	/>
<path fill-rule="evenodd" clip-rule="evenodd" fill="#456673" d="M28.377,147.495h63.352c1.611,0,2.932,1.32,2.932,2.931v7.08
	c0,1.613-1.32,2.933-2.932,2.933H28.377c-1.611,0-2.932-1.319-2.932-2.933v-7.08C25.446,148.814,26.766,147.495,28.377,147.495z"/>
<path fill-rule="evenodd" clip-rule="evenodd" fill="#E98024" d="M88.239,121.085c0.928,2.146,1.432,4.438,1.432,6.818
	c0,12.167-13.11,22.03-29.283,22.03c-16.171,0-29.281-9.863-29.281-22.03c0-2.38,0.504-4.671,1.432-6.818H88.239z"/>
<g>
	
		<rect x="77.533" y="202.642" transform="matrix(-0.3796 0.9251 -0.9251 -0.3796 318.6 233.9096)" fill-rule="evenodd" clip-rule="evenodd" fill="#456673" width="6.683" height="42.267"/>
	
		<rect x="35.892" y="202.641" transform="matrix(0.38 0.925 -0.925 0.38 231.3123 102.4469)" fill-rule="evenodd" clip-rule="evenodd" fill="#456673" width="6.684" height="42.268"/>
</g>
<rect x="55.154" y="159.333" fill-rule="evenodd" clip-rule="evenodd" fill="#456673" width="9.8" height="61.968"/>
<path fill-rule="evenodd" clip-rule="evenodd" fill="#231F20" d="M60.555,68.43c-21.006,0.422-23.354-24.357-22.594-36.599
	C39.379,9.014,60.088-0.138,68.543,7.699c8.986,0,13.197,11.161,14.213,23.914C84.108,48.583,77.854,68.085,60.555,68.43z"/>
<path fill-rule="evenodd" clip-rule="evenodd" fill="#FFDECC" d="M54.014,221.57c-1.454,7.409-6.547,16.78-4.371,24.013
	c2.225,7.397,7.816,7.385,11.271,1.894c3.656-5.812,1.298-17.75,0.969-25.331c-0.279-6.471,11.483-48.523,13.69-67.868
	c2.135-18.711-18.791-22.548-20.784-2.313C52.444,175.781,57.5,203.829,54.014,221.57z"/>
<path fill-rule="evenodd" clip-rule="evenodd" fill="#E98024" d="M50.905,232.486c-1.637,4.519-2.67,9.095-1.534,13.057
	c2.315,8.085,8.358,7.621,11.813,2.131c1.643-2.609,2.15-5.98,1.846-10.786c-1.225,5.287-3.314,8.493-6.877,7.974
	C51.668,244.207,50.223,239.082,50.905,232.486z"/>
<rect x="54.612" y="40.999" fill-rule="evenodd" clip-rule="evenodd" fill="#FFDECC" width="11.203" height="24.506"/>
<path fill-rule="evenodd" clip-rule="evenodd" fill="#E0B9A3" d="M62.727,40.999h3.088v16.578l-11.203-4.828v-2.502
	C56.8,45.54,59.633,42.645,62.727,40.999z"/>
<path fill-rule="evenodd" clip-rule="evenodd" fill="#E98024" d="M65.815,58.186c-0.112,0.175-11.082,0.35-11.203,0.523
	c-3.445,4.916-10.891,7.068-16.81,8.392c-5.892,1.318-6.119,8.8-6.128,13.785h57.428C89.094,75.9,88.985,68.444,82.973,67.1
	C76.963,65.757,69.084,63.324,65.815,58.186z"/>
<path fill-rule="evenodd" clip-rule="evenodd" fill="#E0B9A3" d="M54.628,189.054c3.597-3.289,19.214-38.941,15.821-49.012
	C67.061,129.973,50.622,174.155,54.628,189.054z"/>
<path fill-rule="evenodd" clip-rule="evenodd" fill="#FFDECC" d="M39.52,209.792c-2.436,7.146-8.738,15.748-7.553,23.206
	c1.212,7.633,6.756,8.368,10.914,3.39c4.404-5.267,3.668-17.414,4.359-24.971c0.59-6.451,17.885-46.546,22.668-65.42
	c4.626-18.254-15.596-24.864-20.285-5.078C44.105,164.204,45.352,192.678,39.52,209.792z"/>
<path fill-rule="evenodd" clip-rule="evenodd" fill="#E98024" d="M34.973,220.19c-2.229,4.258-3.864,8.654-3.271,12.733
	c1.211,8.32,7.262,8.674,11.422,3.696c1.977-2.365,2.934-5.638,3.275-10.441c-1.922,5.074-4.424,7.973-7.885,6.979
	C34.159,231.908,33.413,226.636,34.973,220.19z"/>
<path fill-rule="evenodd" clip-rule="evenodd" fill="#FFDECC" d="M60.053,52.092c-4.541,0-14.137-7.141-17.104-17.367
	C39.955,24.398,45.596,9.586,60.053,9.586c14.458,0,20.1,14.812,17.104,25.139C74.19,44.951,64.594,52.092,60.053,52.092z"/>
<ellipse transform="matrix(-0.3947 -0.9188 0.9188 -0.3947 28.2781 84.7655)" fill-rule="evenodd" clip-rule="evenodd" fill="#FFDECC" cx="42.061" cy="33.068" rx="4.978" ry="2.88"/>
<ellipse transform="matrix(0.3947 -0.9188 0.9188 0.3947 17.1028 92.0961)" fill-rule="evenodd" clip-rule="evenodd" fill="#FFDECC" cx="78.448" cy="33.068" rx="4.978" ry="2.88"/>
<path fill-rule="evenodd" clip-rule="evenodd" fill="#231F20" d="M78.536,34.541C84.026,11.007,67.458,7.005,57.79,7.005
	c-10.889,0-19.097,12.922-17.26,27.972c5.809-3.5,10.926-10.417,23.623-21.7c-1.847,3.312-5.447,9.335-17.686,20.255
	c6.586,1.087,18.855-7.215,25.393-15.901C73.422,23.806,75.668,30.565,78.536,34.541z"/>
<path fill-rule="evenodd" clip-rule="evenodd" fill="#456673" d="M99.157,241.572c3.678,0,6.678-3,6.678-6.679
	c0-3.681-3-6.68-6.678-6.68c-3.68,0-6.682,2.999-6.682,6.68C92.475,238.572,95.477,241.572,99.157,241.572z"/>
<path fill-rule="evenodd" clip-rule="evenodd" fill="#456673" d="M20.952,241.572c3.68,0,6.68-3,6.68-6.679
	c0-3.681-3-6.68-6.68-6.68s-6.68,2.999-6.68,6.68C14.272,238.572,17.272,241.572,20.952,241.572z"/>
<path fill-rule="evenodd" clip-rule="evenodd" fill="#E98024" d="M42.115,83.993l-9.412,23.361
	c-3.068,7.616-13.802,4.406-10.97-3.303l11.934-32.526C36.493,63.816,45.184,76.377,42.115,83.993z"/>
<path fill-rule="evenodd" clip-rule="evenodd" fill="#E98024" d="M22.936,94.76l8.594,7.152c6.311,5.252-6.188,13.607-10.292,6.493
	l-6.486-11.24C10.649,90.052,16.625,89.508,22.936,94.76z"/>
<path fill-rule="evenodd" clip-rule="evenodd" fill="#F5CDB8" d="M10.475,87.266c-0.85-3.223-0.432-5.964,1.941-6.591
	c2.374-0.627,4.989,1.479,5.84,4.7c0.849,3.225-0.387,6.344-2.762,6.971C13.121,92.97,11.329,90.489,10.475,87.266z"/>
<g>
	
		<rect x="11.359" y="68.167" transform="matrix(-0.995 0.0996 -0.0996 -0.995 45.5195 161.7785)" fill="#41484C" width="14.727" height="27.717"/>
	<circle fill="#FFCE05" cx="21.621" cy="71.643" r="1.58"/>
</g>
<path fill-rule="evenodd" clip-rule="evenodd" fill="#FFDECC" d="M11.255,93.33L11.255,93.33c-0.356-0.458-0.277-1.125,0.18-1.483
	l1.376-1.076c0.455-0.359,1.122-0.28,1.481,0.177l0,0c0.356,0.46,0.276,1.126-0.18,1.481l-1.374,1.08
	C12.281,93.867,11.614,93.787,11.255,93.33z"/>
<path fill-rule="evenodd" clip-rule="evenodd" fill="#FFDECC" d="M10.022,90.603L10.022,90.603c-0.351-0.463-0.255-1.13,0.208-1.478
	l3.862-2.915c0.463-0.35,1.128-0.254,1.478,0.209l0,0c0.35,0.464,0.259,1.13-0.205,1.48l-3.865,2.91
	C11.037,91.161,10.373,91.068,10.022,90.603z"/>
<path fill-rule="evenodd" clip-rule="evenodd" fill="#FFDECC" d="M9.196,88.072l-0.003-0.001c-0.351-0.46-0.262-1.126,0.198-1.478
	l3.842-2.939c0.461-0.353,1.128-0.262,1.479,0.2h0.001c0.352,0.46,0.266,1.125-0.198,1.479l-3.842,2.936
	C10.212,88.624,9.546,88.533,9.196,88.072z"/>
<path fill-rule="evenodd" clip-rule="evenodd" fill="#FFDECC" d="M8.573,85.384L8.573,85.384c-0.353-0.462-0.259-1.127,0.203-1.477
	l3.854-2.923c0.463-0.352,1.128-0.259,1.478,0.205l0,0c0.353,0.462,0.259,1.128-0.205,1.479l-3.852,2.92
	C9.587,85.939,8.922,85.847,8.573,85.384z"/>
<path fill-rule="evenodd" clip-rule="evenodd" fill="#E98024" d="M78.622,123.648l11.412-9.823
	c6.012-5.175-3.049-14.042-7.457-7.448l-9.041,13.518C69.124,126.487,72.612,128.823,78.622,123.648z"/>
<path fill-rule="evenodd" clip-rule="evenodd" fill="#E98024" d="M75.717,117.9L75.717,117.9c0.091,0.554-0.285,1.082-0.838,1.174
	l-2.588,0.427c-0.555,0.092-1.082-0.285-1.174-0.839l0,0c-0.09-0.554,0.286-1.082,0.84-1.173l2.587-0.427
	C75.098,116.971,75.626,117.347,75.717,117.9z"/>
<path fill-rule="evenodd" clip-rule="evenodd" fill="#E98024" d="M76.667,76.677l5.205,31.956c1.273,7.827,10.693,7.989,9.93,0.096
	l-3.203-33.203C87.838,67.631,75.389,68.849,76.667,76.677z"/>
<path fill-rule="evenodd" clip-rule="evenodd" fill="#F5CDB8" d="M77.995,120.592c-2.936-1.324-4.881-2.99-4.219-4.457
	c0.66-1.466,3.574-1.583,6.51-0.261c2.936,1.323,3.352,2.202,2.688,3.667C82.315,121.008,80.924,121.912,77.995,120.592z"/>
<path fill-rule="evenodd" clip-rule="evenodd" fill="#FFDECC" d="M77.793,117.224L77.793,117.224
	c0.434,0.356,0.492,1.003,0.137,1.435l-1.674,2.018c-0.357,0.434-1.004,0.495-1.437,0.137l0,0c-0.433-0.359-0.493-1.004-0.134-1.437
	l1.672-2.019C76.715,116.925,77.362,116.864,77.793,117.224z"/>
<path fill-rule="evenodd" clip-rule="evenodd" fill="#FFDECC" d="M79.834,118.685l0.002-0.001c0.391,0.402,0.381,1.052-0.021,1.443
	l-1.877,1.829c-0.402,0.39-1.051,0.381-1.443-0.021l0,0c-0.393-0.401-0.383-1.051,0.02-1.441l1.877-1.828
	C78.795,118.272,79.444,118.283,79.834,118.685z"/>
<path fill-rule="evenodd" clip-rule="evenodd" fill="#FFDECC" d="M82.709,119.841L82.709,119.841
	c0.324,0.46,0.211,1.101-0.248,1.424l-2.143,1.506c-0.461,0.323-1.1,0.213-1.422-0.248l0,0c-0.324-0.458-0.213-1.099,0.246-1.42
	l2.146-1.51C81.749,119.272,82.387,119.383,82.709,119.841z"/>
<path fill-rule="evenodd" clip-rule="evenodd" fill="#F5CDB8" d="M74.911,115.879L74.911,115.879
	c-0.119,0.547-0.666,0.899-1.215,0.782l-0.669,0.128c-0.544-0.119-1.077-0.665-0.958-1.214v-0.078
	c0.12-0.547,0.767-0.716,1.316-0.595l1.953,0.211C75.887,115.232,75.03,115.332,74.911,115.879z"/>
<path fill-rule="evenodd" clip-rule="evenodd" fill="#FFDECC" d="M74.881,116.018L74.881,116.018
	c0.537,0.157,0.851,0.728,0.693,1.266l-0.475,1.62c-0.156,0.536-0.727,0.848-1.266,0.691l0,0c-0.537-0.158-0.851-0.727-0.691-1.267
	l0.475-1.617C73.774,116.171,74.343,115.859,74.881,116.018z"/>
</svg>
