<?xml version="1.0" encoding="utf-8"?>
<!-- Generator: Adobe Illustrator 16.0.0, SVG Export Plug-In . SVG Version: 6.00 Build 0)  -->
<!DOCTYPE svg PUBLIC "-//W3C//DTD SVG 1.1//EN" "http://www.w3.org/Graphics/SVG/1.1/DTD/svg11.dtd">
<svg version="1.1" id="Layer_1" xmlns="http://www.w3.org/2000/svg" xmlns:xlink="http://www.w3.org/1999/xlink" x="0px" y="0px"
	 width="368.027px" height="392.517px" viewBox="0 0 368.027 392.517" enable-background="new 0 0 368.027 392.517"
	 xml:space="preserve">
<path fill-rule="evenodd" clip-rule="evenodd" fill="#F8DE16" d="M208.186,82.243c-2.508-1.281-3.668-4.176-2.738-6.836
	l5.082-14.572c1.893-0.36,3.543-1.691,4.225-3.642c1.016-2.91-0.52-6.09-3.428-7.104c-2.908-1.016-6.088,0.52-7.104,3.429
	c-0.682,1.949-0.217,4.02,1.039,5.481l-4.869,13.956c-0.971,2.777-3.908,4.329-6.75,3.562l-0.48-0.127
	c-2.709-0.706-4.457-3.248-4.154-6.03l1.604-14.673c1.762-0.778,3.072-2.448,3.297-4.5c0.33-3.018-1.814-5.738-4.809-6.135
	c-3.01-0.259-5.69,1.934-6.02,4.952c-0.224,2.052,0.696,3.966,2.249,5.105l-1.604,14.674c-0.304,2.782-2.563,4.886-5.359,4.99
	l-0.495,0.021c-2.941,0.136-5.476-2.014-5.822-4.936l-1.74-14.678c1.54-1.155,2.442-3.078,2.2-5.126
	c-0.362-3.06-3.138-5.246-6.198-4.882c-3.059,0.361-5.245,3.135-4.881,6.195c0.243,2.052,1.57,3.708,3.338,4.469l1.82,15.325
	c0.329,2.798-1.429,5.374-4.155,6.083l-0.359,0.092c-2.818,0.747-5.72-0.777-6.705-3.521l-5.222-14.532
	c1.243-1.47,1.69-3.545,0.993-5.489c-1.043-2.9-4.237-4.405-7.137-3.362c-2.899,1.041-4.406,4.235-3.364,7.133
	c0.699,1.944,2.364,3.262,4.26,3.604l11.843,67.534c6.997-0.495,15.675-0.196,24.334,0.715c8.651,0.979,17.19,2.562,23.913,4.558
	l23.793-63.641c1.924,0.076,3.834-0.851,4.936-2.598c1.645-2.604,0.863-6.049-1.742-7.691c-2.605-1.645-6.051-0.865-7.693,1.742
	c-1.102,1.747-1.115,3.87-0.219,5.574l-8.236,13.061c-1.555,2.467-4.717,3.328-7.309,1.99L208.186,82.243z"/>
<path fill="#E9425F" d="M286.623,102.131c-11.199-6.18-24.027-9.717-37.762-9.717c-24.221,0-45.854,11.015-60.164,28.341
	c-14.408-17.326-36.041-28.341-60.308-28.341c-13.641,0-26.468,3.537-37.714,9.717C66.551,115.484,50.23,141.146,50.23,170.67
	c0,8.432,1.389,16.518,3.878,24.08c13.4,60.353,134.589,136.405,134.589,136.405s121.045-76.053,134.494-136.405
	c2.486-7.562,3.877-15.648,3.877-24.08C327.068,141.146,310.746,115.532,286.623,102.131z"/>
<path fill="#C43151" d="M294.615,111.179c0,0,48.479,122.299-116.868,212.816l11.922,8.704l95.291-72.468
	c0,0,45.861-50.69,39.828-82.069C318.754,146.782,323.582,124.454,294.615,111.179z"/>
<path fill="none" stroke="#231F20" stroke-width="12" stroke-linecap="round" stroke-linejoin="round" stroke-miterlimit="10" d="
	M326.775,172.031c0,8.707-1.438,17.059-4.006,24.87c-13.891,62.329-138.904,140.876-138.904,140.876S58.704,259.23,44.863,196.901
	c-2.57-7.812-4.005-16.163-4.005-24.87c0-30.493,16.856-56.994,41.772-70.786c11.614-6.382,24.862-10.036,38.95-10.036
	c25.063,0,47.406,11.376,62.285,29.271c14.781-17.895,37.123-29.271,62.137-29.271c14.188,0,27.436,3.654,39,10.036
	C309.918,115.086,326.775,141.538,326.775,172.031z"/>
<path fill="none" stroke="#231F20" stroke-width="16" stroke-linecap="round" stroke-linejoin="round" stroke-miterlimit="10" d="
	M207.148,185.893c2.105-5.717,6.65-10.477,12.846-12.651c3.514-1.233,7.111-1.479,10.531-0.904c7.375,1.263,13.85,6.349,16.5,13.901
	"/>
<path fill="none" stroke="#231F20" stroke-width="16" stroke-linecap="round" stroke-linejoin="round" stroke-miterlimit="10" d="
	M209.391,240.556c-2.682,7.278-8.467,13.339-16.355,16.107c-4.475,1.569-9.057,1.884-13.41,1.151
	c-9.389-1.607-17.632-8.084-21.007-17.7"/>
<circle fill="#231F20" cx="139.888" cy="177.011" r="15.387"/>
<polygon fill="#E9425F" points="331.234,77.984 332.506,82.298 336.068,79.555 334.562,83.791 339.057,83.667 335.348,86.208 
	339.057,88.749 334.562,88.625 336.068,92.861 332.506,90.119 331.234,94.432 329.965,90.119 326.4,92.861 327.908,88.625 
	323.414,88.749 327.123,86.208 323.414,83.667 327.908,83.791 326.4,79.555 329.965,82.298 "/>
<path fill="#64C5C1" d="M36.868,237.79c-0.478-0.115-1.16-0.255-1.979-0.378c-0.818-0.124-1.774-0.232-2.797-0.305
	c-0.511-0.035-1.04-0.068-1.577-0.083c0.346-0.4,0.656-0.789,0.911-1.136c0.27-0.363,0.479-0.681,0.62-0.909
	c0.141-0.228,0.213-0.367,0.213-0.367s-0.139,0.073-0.366,0.216c-0.229,0.14-0.545,0.349-0.909,0.618
	c-0.347,0.256-0.736,0.566-1.137,0.912c-0.018-0.537-0.047-1.065-0.084-1.577c-0.072-1.023-0.181-1.979-0.305-2.798
	c-0.123-0.818-0.262-1.5-0.376-1.978c-0.11-0.479-0.196-0.751-0.196-0.751s-0.086,0.272-0.197,0.751
	c-0.114,0.478-0.253,1.159-0.376,1.978c-0.124,0.819-0.232,1.774-0.305,2.798c-0.037,0.512-0.066,1.04-0.083,1.577l0,0
	c-0.401-0.346-0.791-0.656-1.138-0.911c-0.363-0.27-0.681-0.479-0.91-0.619c-0.228-0.143-0.366-0.214-0.366-0.214
	s0.073,0.138,0.215,0.365c0.14,0.229,0.35,0.546,0.619,0.909c0.255,0.347,0.566,0.736,0.912,1.138
	c-0.537,0.018-1.065,0.047-1.578,0.084c-1.023,0.073-1.978,0.182-2.797,0.305s-1.501,0.263-1.979,0.377
	c-0.478,0.109-0.75,0.195-0.75,0.195s0.273,0.086,0.75,0.196c0.478,0.115,1.16,0.254,1.979,0.376
	c0.819,0.125,1.774,0.233,2.797,0.306c0.511,0.037,1.039,0.067,1.576,0.084c-0.346,0.4-0.657,0.79-0.911,1.136
	c-0.269,0.364-0.479,0.682-0.619,0.911c-0.141,0.227-0.214,0.366-0.214,0.366s0.139-0.073,0.367-0.214
	c0.229-0.14,0.547-0.351,0.911-0.618c0.346-0.256,0.734-0.565,1.135-0.911c0.015,0.537,0.047,1.064,0.083,1.575
	c0.073,1.023,0.18,1.979,0.305,2.797c0.123,0.819,0.263,1.501,0.378,1.979c0.111,0.478,0.198,0.751,0.198,0.751
	s0.086-0.273,0.198-0.751c0.114-0.478,0.254-1.159,0.377-1.979c0.125-0.818,0.233-1.773,0.305-2.797
	c0.036-0.511,0.068-1.038,0.083-1.575c0.401,0.346,0.79,0.656,1.135,0.911c0.364,0.268,0.682,0.479,0.911,0.618
	c0.227,0.141,0.366,0.214,0.366,0.214s-0.072-0.14-0.213-0.366c-0.14-0.229-0.35-0.547-0.618-0.911
	c-0.255-0.346-0.565-0.734-0.91-1.135c0.536-0.015,1.064-0.047,1.574-0.082c1.023-0.072,1.979-0.181,2.797-0.306
	c0.818-0.123,1.501-0.263,1.979-0.377c0.478-0.111,0.75-0.198,0.75-0.198S37.345,237.901,36.868,237.79z"/>
<path fill="#E98024" d="M158.662,378.437c-0.478-0.114-1.16-0.254-1.979-0.378s-1.774-0.232-2.798-0.305
	c-0.511-0.035-1.039-0.068-1.576-0.083c0.346-0.4,0.656-0.789,0.91-1.135c0.27-0.364,0.48-0.682,0.62-0.91
	c0.142-0.228,0.214-0.366,0.214-0.366s-0.139,0.072-0.366,0.215c-0.229,0.14-0.545,0.35-0.909,0.618
	c-0.346,0.256-0.735,0.566-1.137,0.912c-0.018-0.537-0.048-1.065-0.085-1.577c-0.072-1.023-0.181-1.979-0.305-2.797
	c-0.123-0.819-0.262-1.501-0.376-1.979c-0.11-0.479-0.196-0.75-0.196-0.75s-0.086,0.271-0.196,0.75
	c-0.114,0.478-0.254,1.159-0.376,1.979c-0.124,0.818-0.232,1.773-0.306,2.797c-0.037,0.512-0.066,1.04-0.083,1.578l0,0
	c-0.401-0.347-0.791-0.657-1.138-0.912c-0.363-0.27-0.682-0.479-0.91-0.619c-0.228-0.143-0.366-0.214-0.366-0.214
	s0.073,0.138,0.215,0.365c0.141,0.229,0.351,0.546,0.619,0.91c0.256,0.346,0.566,0.735,0.912,1.137
	c-0.537,0.018-1.065,0.047-1.578,0.084c-1.022,0.073-1.978,0.182-2.797,0.306c-0.818,0.122-1.5,0.262-1.979,0.376
	c-0.478,0.109-0.75,0.196-0.75,0.196s0.272,0.086,0.75,0.195c0.479,0.115,1.16,0.254,1.979,0.376
	c0.819,0.125,1.774,0.233,2.797,0.307c0.512,0.037,1.039,0.066,1.576,0.083c-0.346,0.401-0.656,0.79-0.911,1.136
	c-0.269,0.364-0.479,0.682-0.618,0.911c-0.142,0.227-0.215,0.366-0.215,0.366s0.14-0.072,0.367-0.214
	c0.229-0.14,0.547-0.351,0.91-0.618c0.346-0.255,0.734-0.565,1.135-0.911c0.016,0.537,0.048,1.064,0.083,1.575
	c0.072,1.023,0.181,1.979,0.305,2.797c0.123,0.819,0.263,1.501,0.378,1.979c0.111,0.479,0.197,0.751,0.197,0.751
	s0.087-0.272,0.198-0.751c0.114-0.478,0.254-1.159,0.377-1.979c0.124-0.818,0.232-1.773,0.305-2.797
	c0.036-0.511,0.068-1.038,0.082-1.575c0.401,0.346,0.79,0.657,1.136,0.911c0.363,0.268,0.681,0.479,0.91,0.618
	c0.228,0.142,0.366,0.214,0.366,0.214s-0.072-0.14-0.214-0.366c-0.14-0.229-0.35-0.547-0.618-0.911
	c-0.255-0.345-0.565-0.734-0.91-1.134c0.537-0.016,1.064-0.048,1.574-0.083c1.023-0.072,1.979-0.181,2.798-0.306
	c0.818-0.123,1.501-0.263,1.979-0.377c0.478-0.111,0.75-0.197,0.75-0.197S159.139,378.548,158.662,378.437z"/>
<path fill="#E98024" d="M254.387,68.64c-0.279-0.067-0.678-0.149-1.158-0.221c-0.479-0.073-1.037-0.137-1.637-0.179
	c-0.299-0.021-0.607-0.04-0.924-0.048c0.203-0.235,0.385-0.462,0.533-0.665c0.158-0.212,0.281-0.398,0.363-0.532
	c0.084-0.133,0.125-0.215,0.125-0.215s-0.08,0.043-0.213,0.126c-0.135,0.082-0.32,0.205-0.533,0.362
	c-0.203,0.149-0.432,0.332-0.666,0.534c-0.01-0.314-0.027-0.624-0.049-0.923c-0.043-0.599-0.105-1.158-0.178-1.637
	c-0.072-0.479-0.154-0.878-0.221-1.159c-0.064-0.279-0.115-0.439-0.115-0.439s-0.051,0.16-0.115,0.439
	c-0.066,0.28-0.148,0.679-0.219,1.159c-0.074,0.479-0.137,1.038-0.18,1.637c-0.021,0.299-0.039,0.609-0.049,0.923l0,0
	c-0.234-0.202-0.463-0.384-0.666-0.534c-0.213-0.158-0.398-0.28-0.533-0.362c-0.133-0.083-0.213-0.125-0.213-0.125
	s0.041,0.081,0.125,0.214c0.082,0.134,0.205,0.32,0.363,0.532c0.148,0.203,0.33,0.431,0.533,0.666
	c-0.314,0.01-0.623,0.027-0.924,0.049c-0.6,0.043-1.158,0.106-1.637,0.179c-0.48,0.072-0.879,0.154-1.158,0.221
	c-0.279,0.064-0.439,0.114-0.439,0.114s0.16,0.05,0.439,0.115c0.279,0.067,0.678,0.148,1.158,0.22
	c0.479,0.073,1.037,0.136,1.637,0.179c0.299,0.022,0.607,0.039,0.922,0.049c-0.201,0.235-0.385,0.462-0.533,0.665
	c-0.156,0.213-0.279,0.399-0.361,0.533c-0.084,0.133-0.125,0.214-0.125,0.214s0.08-0.042,0.213-0.125
	c0.135-0.082,0.322-0.205,0.533-0.362c0.203-0.149,0.43-0.331,0.664-0.533c0.01,0.314,0.029,0.623,0.049,0.922
	c0.043,0.599,0.105,1.158,0.18,1.637c0.07,0.48,0.152,0.878,0.221,1.158c0.064,0.28,0.115,0.439,0.115,0.439
	s0.051-0.159,0.115-0.439c0.066-0.279,0.148-0.678,0.221-1.158c0.074-0.479,0.137-1.039,0.18-1.637
	c0.02-0.299,0.039-0.608,0.047-0.922c0.234,0.202,0.463,0.384,0.666,0.533c0.213,0.157,0.398,0.28,0.533,0.362
	c0.133,0.083,0.213,0.125,0.213,0.125s-0.041-0.081-0.125-0.214c-0.082-0.134-0.203-0.32-0.361-0.533
	c-0.15-0.202-0.33-0.43-0.533-0.665c0.314-0.008,0.623-0.027,0.922-0.048c0.6-0.042,1.158-0.106,1.637-0.179
	c0.48-0.072,0.879-0.154,1.158-0.221c0.281-0.065,0.439-0.116,0.439-0.116S254.668,68.705,254.387,68.64z"/>
<path fill="#64C5C1" d="M248.74,325.342h-6.918l-2.139-6.579l-2.137,6.579h-6.918l5.596,4.065l-2.137,6.579l5.596-4.066l5.598,4.066
	l-2.139-6.579L248.74,325.342z M239.684,330.211c-1.129,0-2.043-0.914-2.043-2.043c0-1.128,0.914-2.043,2.043-2.043
	s2.043,0.915,2.043,2.043C241.727,329.297,240.812,330.211,239.684,330.211z"/>
<path fill="#F8DE16" d="M320.939,26.886h-6.918l-2.139-6.579l-2.137,6.579h-6.918l5.596,4.066l-2.137,6.579l5.596-4.066l5.598,4.066
	l-2.139-6.579L320.939,26.886z M311.883,31.756c-1.129,0-2.043-0.915-2.043-2.043s0.914-2.043,2.043-2.043s2.043,0.915,2.043,2.043
	S313.012,31.756,311.883,31.756z"/>
<path fill="#E98024" d="M13.406,163.639h-2.77l-0.856-2.634l-0.855,2.634h-2.77l2.241,1.627L7.54,167.9l2.24-1.628l2.241,1.628
	l-0.856-2.635L13.406,163.639z M9.78,165.588c-0.452,0-0.818-0.366-0.818-0.818c0-0.451,0.366-0.817,0.818-0.817
	c0.452,0,0.818,0.366,0.818,0.817C10.598,165.222,10.232,165.588,9.78,165.588z"/>
<polygon fill="#F8DE16" points="28.532,113.013 36.047,109.998 28.195,111.976 27.65,103.896 27.105,111.976 19.253,109.997 
	26.769,113.012 22.46,119.868 27.65,113.652 32.839,119.868 "/>
<polygon fill="#E98024" points="110.213,33.157 117.499,30.235 110.682,31.952 114.292,26.209 109.619,31.805 109.101,24.134 
	108.583,31.804 103.913,26.208 107.521,31.952 100.705,30.234 107.989,33.157 100.705,36.079 107.52,34.362 103.912,40.105 
	108.583,34.509 109.101,42.18 109.619,34.51 114.291,40.106 110.681,34.363 117.499,36.08 "/>
<path fill="#E98024" d="M349.008,246.135c1.83,0.227,3.064,0.309,3.064,0.309s-1.188-0.345-2.984-0.758
	c-0.898-0.211-1.949-0.439-3.078-0.666c-0.465-0.091-0.945-0.19-1.432-0.282c0.486-0.092,0.967-0.191,1.432-0.282
	c1.131-0.228,2.18-0.455,3.078-0.666c1.797-0.413,2.984-0.758,2.984-0.758s-1.234,0.082-3.062,0.309
	c-0.916,0.109-1.982,0.255-3.121,0.427c-0.469,0.074-0.953,0.145-1.441,0.225c0.426-0.253,0.842-0.51,1.25-0.755
	c0.982-0.599,1.891-1.174,2.662-1.678c1.549-1.003,2.545-1.732,2.545-1.732s-1.129,0.498-2.771,1.337
	c-0.824,0.416-1.775,0.917-2.787,1.468c-0.414,0.23-0.846,0.462-1.275,0.704c0.312-0.383,0.615-0.767,0.914-1.136
	c0.719-0.899,1.377-1.75,1.93-2.488c1.111-1.472,1.799-2.498,1.799-2.498s-0.893,0.854-2.148,2.205
	c-0.631,0.672-1.354,1.468-2.115,2.332c-0.312,0.358-0.637,0.724-0.961,1.099c0.164-0.467,0.318-0.933,0.473-1.381
	c0.367-1.091,0.695-2.116,0.961-2.999c0.541-1.763,0.836-2.962,0.836-2.962s-0.545,1.108-1.264,2.807
	c-0.363,0.848-0.771,1.843-1.189,2.915c-0.172,0.444-0.354,0.899-0.529,1.364c-0.006-0.496-0.021-0.987-0.029-1.463
	c-0.027-1.151-0.07-2.226-0.121-3.146c-0.096-1.842-0.227-3.069-0.227-3.069s-0.133,1.228-0.229,3.069
	c-0.051,0.921-0.094,1.995-0.121,3.146c-0.008,0.476-0.023,0.967-0.029,1.463c-0.176-0.465-0.357-0.921-0.527-1.364
	c-0.42-1.072-0.828-2.067-1.191-2.916c-0.717-1.698-1.264-2.807-1.264-2.807s0.297,1.199,0.838,2.963
	c0.268,0.883,0.594,1.906,0.961,2.997c0.154,0.45,0.309,0.917,0.473,1.386c-0.324-0.376-0.65-0.743-0.963-1.102
	c-0.762-0.863-1.484-1.66-2.115-2.332c-1.256-1.351-2.146-2.206-2.146-2.206s0.688,1.026,1.799,2.497
	c0.553,0.739,1.211,1.59,1.93,2.488c0.299,0.37,0.604,0.756,0.918,1.14c-0.434-0.242-0.867-0.476-1.283-0.705
	c-1.01-0.552-1.961-1.052-2.785-1.468c-1.643-0.84-2.771-1.339-2.771-1.339s0.996,0.729,2.545,1.731
	c0.771,0.505,1.682,1.079,2.664,1.679c0.408,0.245,0.826,0.503,1.252,0.757c-0.49-0.08-0.975-0.15-1.445-0.225
	c-1.139-0.172-2.205-0.317-3.119-0.427c-1.832-0.227-3.064-0.31-3.064-0.31s1.188,0.344,2.984,0.757
	c0.898,0.21,1.949,0.438,3.078,0.666c0.467,0.091,0.947,0.19,1.436,0.283c-0.488,0.093-0.969,0.191-1.436,0.283
	c-1.129,0.228-2.18,0.456-3.078,0.666c-1.797,0.413-2.984,0.757-2.984,0.757s1.232-0.083,3.064-0.311
	c0.916-0.108,1.98-0.254,3.119-0.426c0.471-0.074,0.955-0.146,1.445-0.226c-0.426,0.254-0.844,0.512-1.252,0.757
	c-0.982,0.601-1.893,1.175-2.664,1.679c-1.549,1.003-2.545,1.731-2.545,1.731s1.129-0.499,2.771-1.338
	c0.824-0.416,1.775-0.916,2.785-1.468c0.418-0.23,0.85-0.464,1.283-0.706c-0.314,0.385-0.619,0.77-0.918,1.14
	c-0.719,0.9-1.377,1.75-1.93,2.488c-1.111,1.472-1.799,2.498-1.799,2.498s0.891-0.855,2.146-2.206
	c0.633-0.673,1.354-1.469,2.117-2.332c0.311-0.358,0.639-0.726,0.963-1.102c-0.164,0.469-0.318,0.935-0.473,1.385
	c-0.367,1.091-0.695,2.115-0.963,2.998c-0.541,1.763-0.836,2.962-0.836,2.962s0.545-1.108,1.262-2.807
	c0.363-0.848,0.771-1.843,1.191-2.915c0.17-0.443,0.352-0.898,0.527-1.361c0.006,0.494,0.02,0.984,0.029,1.459
	c0.027,1.151,0.07,2.225,0.121,3.146c0.094,1.841,0.229,3.069,0.229,3.069s0.133-1.229,0.227-3.069
	c0.053-0.922,0.094-1.995,0.121-3.146c0.01-0.475,0.023-0.965,0.031-1.459c0.174,0.463,0.355,0.918,0.525,1.361
	c0.42,1.072,0.828,2.067,1.191,2.915c0.719,1.698,1.264,2.806,1.264,2.806s-0.295-1.199-0.836-2.961
	c-0.268-0.884-0.594-1.908-0.963-2.999c-0.154-0.449-0.307-0.914-0.471-1.381c0.322,0.375,0.648,0.74,0.959,1.099
	c0.762,0.864,1.486,1.659,2.117,2.333c1.256,1.35,2.148,2.204,2.148,2.204s-0.688-1.026-1.801-2.498
	c-0.553-0.738-1.209-1.589-1.928-2.488c-0.299-0.368-0.604-0.754-0.916-1.137c0.432,0.242,0.863,0.474,1.277,0.704
	c1.012,0.552,1.963,1.052,2.787,1.469c1.643,0.839,2.771,1.337,2.771,1.337s-0.996-0.729-2.545-1.732
	c-0.771-0.505-1.68-1.079-2.664-1.679c-0.406-0.244-0.822-0.502-1.248-0.754c0.488,0.08,0.973,0.149,1.441,0.224
	C347.027,245.88,348.094,246.025,349.008,246.135z"/>
<path fill="#64C5C1" d="M182.187,15.18c1.431,0.177,2.395,0.241,2.395,0.241s-0.928-0.27-2.333-0.592
	c-0.701-0.165-1.522-0.343-2.405-0.521c-0.364-0.07-0.738-0.148-1.119-0.22c0.381-0.072,0.755-0.15,1.119-0.221
	c0.883-0.178,1.704-0.356,2.405-0.521c1.405-0.323,2.333-0.592,2.333-0.592s-0.964,0.064-2.394,0.242
	c-0.717,0.085-1.55,0.198-2.439,0.333c-0.366,0.058-0.745,0.113-1.127,0.176c0.333-0.198,0.659-0.398,0.977-0.59
	c0.769-0.469,1.479-0.918,2.082-1.312c1.21-0.784,1.989-1.354,1.989-1.354s-0.884,0.389-2.167,1.045
	c-0.644,0.325-1.388,0.716-2.178,1.147c-0.324,0.18-0.661,0.361-0.999,0.55c0.246-0.299,0.482-0.599,0.716-0.888
	c0.562-0.703,1.076-1.368,1.509-1.945c0.868-1.15,1.405-1.953,1.405-1.953s-0.696,0.668-1.679,1.724
	c-0.493,0.526-1.059,1.148-1.654,1.823c-0.243,0.28-0.498,0.566-0.75,0.859c0.128-0.366,0.248-0.729,0.368-1.08
	c0.288-0.853,0.544-1.654,0.753-2.344c0.423-1.378,0.652-2.315,0.652-2.315s-0.426,0.866-0.987,2.194
	c-0.284,0.663-0.604,1.44-0.931,2.279c-0.134,0.347-0.275,0.703-0.413,1.066c-0.005-0.388-0.017-0.771-0.022-1.143
	c-0.022-0.899-0.056-1.739-0.096-2.459c-0.073-1.439-0.178-2.399-0.178-2.399s-0.104,0.96-0.177,2.399
	c-0.04,0.72-0.073,1.56-0.096,2.459c-0.006,0.372-0.018,0.755-0.023,1.143c-0.137-0.363-0.278-0.719-0.412-1.066
	c-0.328-0.838-0.646-1.615-0.931-2.279c-0.562-1.328-0.987-2.194-0.987-2.194s0.231,0.938,0.654,2.316
	c0.209,0.69,0.465,1.49,0.752,2.343c0.12,0.352,0.241,0.716,0.369,1.083c-0.253-0.293-0.509-0.58-0.753-0.861
	c-0.595-0.675-1.16-1.297-1.654-1.823c-0.981-1.056-1.678-1.724-1.678-1.724s0.537,0.802,1.407,1.952
	c0.432,0.577,0.946,1.242,1.507,1.945c0.234,0.289,0.473,0.59,0.719,0.891c-0.34-0.189-0.678-0.372-1.003-0.551
	c-0.79-0.432-1.533-0.822-2.177-1.148c-1.284-0.656-2.167-1.046-2.167-1.046s0.779,0.57,1.989,1.354
	c0.604,0.394,1.314,0.843,2.082,1.312c0.319,0.191,0.646,0.393,0.979,0.592c-0.383-0.062-0.763-0.118-1.131-0.176
	c-0.89-0.134-1.723-0.248-2.438-0.333c-1.431-0.177-2.394-0.242-2.394-0.242s0.928,0.269,2.333,0.591
	c0.701,0.165,1.522,0.343,2.405,0.521c0.364,0.071,0.741,0.149,1.122,0.222c-0.381,0.072-0.758,0.149-1.122,0.221
	c-0.883,0.178-1.704,0.356-2.405,0.521c-1.405,0.322-2.333,0.591-2.333,0.591s0.963-0.065,2.394-0.242
	c0.717-0.085,1.549-0.199,2.438-0.333c0.368-0.058,0.748-0.113,1.131-0.176c-0.333,0.199-0.66,0.4-0.979,0.591
	c-0.769,0.469-1.479,0.918-2.083,1.312c-1.21,0.784-1.989,1.354-1.989,1.354s0.883-0.391,2.167-1.046
	c0.644-0.325,1.387-0.716,2.177-1.147c0.326-0.18,0.664-0.362,1.003-0.552c-0.246,0.301-0.483,0.602-0.718,0.891
	c-0.562,0.704-1.075,1.368-1.508,1.945c-0.869,1.15-1.407,1.952-1.407,1.952s0.697-0.668,1.679-1.725
	c0.493-0.525,1.059-1.147,1.654-1.823c0.244-0.28,0.499-0.567,0.753-0.861c-0.129,0.367-0.249,0.73-0.37,1.083
	c-0.287,0.853-0.543,1.653-0.752,2.343c-0.423,1.378-0.653,2.315-0.653,2.315s0.425-0.866,0.986-2.194
	c0.285-0.662,0.604-1.44,0.932-2.279c0.133-0.346,0.274-0.701,0.411-1.064c0.005,0.387,0.017,0.77,0.023,1.141
	c0.021,0.9,0.055,1.739,0.095,2.46c0.074,1.439,0.178,2.399,0.178,2.399s0.104-0.96,0.179-2.399c0.04-0.721,0.073-1.56,0.095-2.46
	c0.007-0.371,0.018-0.753,0.023-1.141c0.137,0.363,0.278,0.718,0.411,1.064c0.328,0.839,0.646,1.617,0.931,2.279
	c0.562,1.328,0.988,2.194,0.988,2.194s-0.23-0.938-0.653-2.315c-0.209-0.69-0.465-1.491-0.752-2.344
	c-0.121-0.351-0.241-0.714-0.368-1.079c0.252,0.293,0.507,0.579,0.749,0.858c0.596,0.675,1.161,1.297,1.654,1.823
	c0.982,1.056,1.68,1.724,1.68,1.724s-0.538-0.803-1.407-1.953c-0.432-0.577-0.945-1.242-1.508-1.945
	c-0.232-0.288-0.47-0.588-0.716-0.888c0.338,0.189,0.676,0.37,1,0.55c0.79,0.431,1.534,0.822,2.177,1.147
	c1.284,0.656,2.168,1.045,2.168,1.045s-0.779-0.57-1.989-1.354c-0.604-0.395-1.314-0.843-2.083-1.312
	c-0.317-0.191-0.643-0.392-0.976-0.589c0.382,0.062,0.761,0.117,1.127,0.175C180.638,14.981,181.471,15.095,182.187,15.18z"/>
<path fill="#F8DE16" d="M52.297,285.545c2.515,0.312,4.209,0.424,4.209,0.424s-1.63-0.474-4.101-1.04
	c-1.233-0.29-2.677-0.604-4.229-0.917c-0.64-0.123-1.298-0.26-1.968-0.387c0.669-0.126,1.328-0.263,1.968-0.388
	c1.552-0.312,2.995-0.626,4.229-0.915c2.47-0.568,4.1-1.042,4.1-1.042s-1.694,0.112-4.209,0.425
	c-1.258,0.149-2.723,0.35-4.287,0.586c-0.645,0.102-1.311,0.199-1.982,0.309c0.585-0.348,1.159-0.7,1.717-1.037
	c1.351-0.823,2.6-1.613,3.661-2.307c2.127-1.379,3.497-2.381,3.497-2.381s-1.553,0.686-3.81,1.839
	c-1.131,0.571-2.439,1.259-3.829,2.017c-0.57,0.316-1.162,0.635-1.755,0.967c0.431-0.525,0.847-1.053,1.258-1.562
	c0.988-1.235,1.892-2.404,2.651-3.419c1.527-2.021,2.472-3.433,2.472-3.433s-1.225,1.175-2.952,3.03
	c-0.868,0.924-1.861,2.018-2.908,3.205c-0.428,0.492-0.875,0.994-1.319,1.51c0.225-0.643,0.436-1.281,0.648-1.898
	c0.505-1.499,0.956-2.907,1.323-4.12c0.743-2.423,1.147-4.071,1.147-4.071s-0.749,1.523-1.736,3.857
	c-0.499,1.165-1.061,2.532-1.636,4.006c-0.235,0.61-0.484,1.236-0.725,1.874c-0.009-0.682-0.029-1.356-0.041-2.01
	c-0.039-1.582-0.097-3.058-0.167-4.324c-0.13-2.53-0.312-4.219-0.312-4.219s-0.182,1.688-0.312,4.219
	c-0.07,1.267-0.129,2.742-0.167,4.324c-0.012,0.653-0.032,1.328-0.041,2.01c-0.241-0.638-0.49-1.265-0.724-1.874
	c-0.578-1.474-1.137-2.841-1.637-4.007c-0.987-2.335-1.736-3.857-1.736-3.857s0.406,1.648,1.15,4.071
	c0.367,1.213,0.817,2.621,1.322,4.12c0.212,0.618,0.424,1.259,0.649,1.902c-0.445-0.516-0.894-1.02-1.323-1.513
	c-1.046-1.187-2.041-2.281-2.908-3.205c-1.726-1.856-2.95-3.031-2.95-3.031s0.944,1.41,2.473,3.432
	c0.76,1.015,1.664,2.184,2.65,3.42c0.412,0.509,0.831,1.038,1.262,1.566c-0.596-0.333-1.19-0.654-1.762-0.97
	c-1.389-0.758-2.697-1.445-3.828-2.018c-2.257-1.153-3.81-1.839-3.81-1.839s1.37,1.002,3.498,2.38
	c1.061,0.692,2.311,1.481,3.661,2.306c0.561,0.337,1.135,0.691,1.722,1.041c-0.674-0.11-1.341-0.207-1.988-0.31
	c-1.564-0.236-3.029-0.436-4.288-0.586c-2.515-0.312-4.208-0.426-4.208-0.426s1.631,0.473,4.101,1.04
	c1.233,0.288,2.677,0.603,4.229,0.915c0.642,0.126,1.303,0.263,1.974,0.39c-0.67,0.127-1.332,0.264-1.974,0.389
	c-1.552,0.312-2.995,0.627-4.229,0.916c-2.47,0.567-4.101,1.039-4.101,1.039s1.693-0.113,4.208-0.426
	c1.26-0.149,2.723-0.349,4.288-0.586c0.646-0.102,1.313-0.199,1.988-0.31c-0.586,0.35-1.161,0.703-1.721,1.04
	c-1.351,0.825-2.601,1.614-3.662,2.308c-2.127,1.378-3.498,2.38-3.498,2.38s1.552-0.687,3.81-1.84
	c1.131-0.571,2.439-1.259,3.828-2.018c0.573-0.315,1.167-0.637,1.762-0.97c-0.432,0.528-0.85,1.058-1.261,1.566
	c-0.987,1.237-1.892,2.405-2.652,3.42c-1.528,2.022-2.473,3.433-2.473,3.433s1.225-1.176,2.95-3.031
	c0.869-0.925,1.861-2.019,2.908-3.205c0.43-0.493,0.878-0.997,1.324-1.515c-0.225,0.645-0.438,1.284-0.649,1.903
	c-0.505,1.5-0.956,2.907-1.323,4.121c-0.744,2.422-1.149,4.07-1.149,4.07s0.749-1.523,1.735-3.857c0.5-1.165,1.06-2.533,1.637-4.007
	c0.233-0.608,0.482-1.233,0.724-1.871c0.008,0.681,0.028,1.354,0.04,2.006c0.038,1.582,0.096,3.058,0.167,4.324
	c0.13,2.53,0.312,4.218,0.312,4.218s0.184-1.688,0.314-4.218c0.07-1.267,0.128-2.742,0.167-4.324
	c0.012-0.652,0.032-1.325,0.041-2.006c0.241,0.638,0.49,1.263,0.723,1.871c0.577,1.474,1.137,2.842,1.636,4.007
	c0.988,2.334,1.737,3.855,1.737,3.855s-0.404-1.647-1.148-4.07c-0.366-1.214-0.816-2.621-1.322-4.121
	c-0.212-0.616-0.423-1.255-0.647-1.896c0.444,0.515,0.892,1.018,1.318,1.51c1.047,1.187,2.041,2.28,2.908,3.205
	c1.727,1.855,2.952,3.03,2.952,3.03s-0.944-1.411-2.473-3.434c-0.76-1.015-1.664-2.183-2.651-3.42
	c-0.41-0.506-0.827-1.035-1.259-1.562c0.594,0.333,1.188,0.651,1.757,0.968c1.389,0.758,2.697,1.446,3.828,2.018
	c2.257,1.153,3.811,1.837,3.811,1.837s-1.37-1.002-3.497-2.38c-1.061-0.693-2.311-1.482-3.661-2.307
	c-0.559-0.336-1.131-0.689-1.717-1.037c0.672,0.11,1.337,0.206,1.981,0.309C49.574,285.195,51.039,285.395,52.297,285.545z"/>
<path fill="#F8DE16" d="M360.58,142.874c2.174,0.269,3.637,0.366,3.637,0.366s-1.408-0.409-3.543-0.899
	c-1.064-0.25-2.312-0.521-3.652-0.791c-0.553-0.107-1.121-0.226-1.701-0.334c0.58-0.109,1.148-0.228,1.701-0.336
	c1.342-0.27,2.588-0.54,3.654-0.79c2.133-0.49,3.541-0.899,3.541-0.899s-1.463,0.097-3.635,0.366
	c-1.088,0.129-2.354,0.302-3.703,0.506c-0.559,0.088-1.133,0.172-1.713,0.268c0.506-0.301,1-0.605,1.484-0.896
	c1.166-0.711,2.244-1.394,3.16-1.992c1.838-1.191,3.021-2.057,3.021-2.057s-1.342,0.592-3.291,1.588
	c-0.977,0.494-2.107,1.088-3.309,1.742c-0.49,0.273-1.002,0.548-1.516,0.836c0.373-0.454,0.732-0.91,1.088-1.35
	c0.854-1.067,1.635-2.077,2.289-2.953c1.32-1.747,2.135-2.966,2.135-2.966s-1.057,1.016-2.549,2.618
	c-0.75,0.798-1.607,1.742-2.512,2.768c-0.371,0.426-0.756,0.859-1.139,1.306c0.193-0.556,0.375-1.107,0.559-1.641
	c0.438-1.295,0.826-2.511,1.143-3.56c0.643-2.092,0.992-3.517,0.992-3.517s-0.648,1.316-1.5,3.332
	c-0.432,1.007-0.916,2.188-1.414,3.461c-0.203,0.527-0.418,1.067-0.627,1.619c-0.008-0.589-0.025-1.172-0.035-1.736
	c-0.033-1.366-0.084-2.642-0.145-3.735c-0.111-2.187-0.27-3.645-0.27-3.645s-0.156,1.458-0.27,3.645
	c-0.059,1.094-0.111,2.369-0.145,3.735c-0.01,0.564-0.027,1.147-0.035,1.736c-0.207-0.552-0.424-1.093-0.625-1.619
	c-0.5-1.273-0.982-2.454-1.414-3.462c-0.854-2.017-1.5-3.331-1.5-3.331s0.352,1.423,0.994,3.517
	c0.316,1.048,0.705,2.264,1.141,3.559c0.184,0.534,0.367,1.088,0.562,1.645c-0.385-0.446-0.773-0.882-1.143-1.309
	c-0.904-1.024-1.764-1.97-2.514-2.768c-1.49-1.604-2.547-2.619-2.547-2.619s0.814,1.219,2.135,2.965
	c0.656,0.877,1.438,1.887,2.291,2.954c0.354,0.439,0.717,0.896,1.088,1.353c-0.514-0.287-1.025-0.564-1.521-0.837
	c-1.199-0.655-2.328-1.249-3.307-1.743c-1.949-0.996-3.289-1.588-3.289-1.588s1.182,0.865,3.021,2.055
	c0.916,0.6,1.994,1.28,3.162,1.993c0.482,0.29,0.979,0.597,1.486,0.898c-0.582-0.095-1.158-0.179-1.717-0.267
	c-1.352-0.205-2.617-0.377-3.703-0.507c-2.174-0.27-3.637-0.367-3.637-0.367s1.41,0.407,3.543,0.898
	c1.066,0.249,2.312,0.52,3.654,0.79c0.553,0.108,1.125,0.227,1.703,0.337c-0.578,0.109-1.15,0.227-1.703,0.335
	c-1.342,0.271-2.588,0.542-3.654,0.791c-2.133,0.49-3.543,0.898-3.543,0.898s1.463-0.099,3.637-0.368
	c1.088-0.129,2.352-0.302,3.703-0.506c0.559-0.088,1.135-0.172,1.717-0.268c-0.506,0.302-1.002,0.607-1.486,0.898
	c-1.168,0.713-2.246,1.395-3.162,1.993c-1.84,1.19-3.021,2.056-3.021,2.056s1.34-0.593,3.289-1.589
	c0.979-0.494,2.107-1.088,3.307-1.743c0.496-0.272,1.01-0.55,1.523-0.838c-0.373,0.457-0.734,0.914-1.09,1.354
	c-0.852,1.068-1.635,2.077-2.289,2.954c-1.322,1.747-2.137,2.965-2.137,2.965s1.057-1.015,2.549-2.618
	c0.748-0.799,1.607-1.744,2.512-2.769c0.371-0.426,0.758-0.861,1.143-1.309c-0.193,0.558-0.379,1.109-0.561,1.645
	c-0.436,1.296-0.826,2.512-1.143,3.56c-0.643,2.092-0.994,3.516-0.994,3.516s0.646-1.315,1.5-3.332
	c0.432-1.006,0.916-2.188,1.414-3.461c0.201-0.525,0.418-1.065,0.625-1.616c0.008,0.588,0.023,1.169,0.035,1.732
	c0.033,1.367,0.082,2.642,0.145,3.735c0.111,2.187,0.27,3.645,0.27,3.645s0.158-1.458,0.271-3.645
	c0.061-1.094,0.111-2.368,0.145-3.735c0.01-0.563,0.027-1.145,0.033-1.732c0.209,0.551,0.424,1.091,0.625,1.616
	c0.5,1.273,0.982,2.455,1.414,3.461c0.854,2.017,1.5,3.331,1.5,3.331s-0.35-1.423-0.99-3.516c-0.318-1.049-0.707-2.265-1.143-3.561
	c-0.184-0.532-0.367-1.084-0.561-1.638c0.385,0.444,0.77,0.878,1.139,1.304c0.906,1.025,1.764,1.97,2.514,2.769
	c1.49,1.604,2.549,2.617,2.549,2.617s-0.814-1.219-2.135-2.965c-0.656-0.877-1.438-1.887-2.291-2.955
	c-0.354-0.438-0.715-0.894-1.088-1.349c0.514,0.287,1.027,0.562,1.518,0.836c1.201,0.655,2.332,1.249,3.309,1.743
	c1.949,0.996,3.291,1.587,3.291,1.587s-1.184-0.866-3.021-2.056c-0.916-0.6-1.994-1.281-3.162-1.993
	c-0.482-0.291-0.977-0.596-1.482-0.896c0.58,0.095,1.154,0.178,1.711,0.267C358.229,142.572,359.494,142.744,360.58,142.874z"/>
<path fill="#E9425F" d="M98.047,316.2c-0.482-0.496-0.973-1.018-1.484-1.532c-0.335-0.339-0.675-0.684-1.015-1.027
	c0.22-0.002,0.441-0.002,0.658-0.004c0.486-0.001,0.963-0.017,1.426-0.023c0.926-0.018,1.789-0.047,2.529-0.081
	c1.479-0.063,2.467-0.151,2.467-0.151s-0.987-0.089-2.467-0.152c-0.74-0.034-1.604-0.062-2.529-0.081
	c-0.462-0.007-0.939-0.021-1.426-0.022c-0.217-0.001-0.438-0.003-0.658-0.005c0.34-0.343,0.68-0.688,1.015-1.026
	c0.512-0.515,1.002-1.036,1.484-1.533c0.959-0.998,1.843-1.942,2.59-2.762c1.499-1.633,2.449-2.77,2.449-2.77
	s-1.138,0.949-2.771,2.449c-0.819,0.747-1.763,1.63-2.761,2.589c-0.497,0.482-1.019,0.972-1.534,1.484
	c-0.339,0.335-0.684,0.675-1.026,1.014c-0.002-0.22-0.003-0.44-0.005-0.657c0-0.485-0.015-0.963-0.022-1.426
	c-0.019-0.925-0.047-1.789-0.081-2.528c-0.062-1.48-0.152-2.467-0.152-2.467s-0.089,0.986-0.152,2.467
	c-0.034,0.739-0.062,1.604-0.081,2.528c-0.007,0.463-0.022,0.94-0.022,1.426c-0.001,0.217-0.002,0.438-0.004,0.657
	c-0.344-0.339-0.688-0.679-1.027-1.014c-0.514-0.514-1.035-1.003-1.532-1.485c-0.998-0.959-1.942-1.842-2.762-2.59
	c-1.632-1.498-2.771-2.447-2.771-2.447s0.949,1.138,2.448,2.771c0.747,0.819,1.63,1.763,2.59,2.761
	c0.481,0.497,0.972,1.02,1.484,1.533c0.335,0.339,0.675,0.684,1.015,1.026c-0.22,0.002-0.441,0.004-0.658,0.004
	c-0.485,0.001-0.963,0.017-1.426,0.022c-0.925,0.02-1.788,0.048-2.528,0.082c-1.48,0.062-2.467,0.152-2.467,0.152
	s0.986,0.09,2.467,0.152c0.74,0.034,1.604,0.062,2.528,0.081c0.463,0.007,0.94,0.022,1.426,0.022
	c0.217,0.002,0.438,0.003,0.658,0.004c-0.34,0.344-0.68,0.688-1.015,1.027c-0.513,0.514-1.003,1.036-1.484,1.532
	c-0.96,0.998-1.843,1.942-2.59,2.762c-1.499,1.632-2.448,2.771-2.448,2.771s1.139-0.95,2.771-2.449
	c0.819-0.747,1.764-1.63,2.762-2.59c0.497-0.482,1.019-0.971,1.532-1.484c0.339-0.335,0.684-0.675,1.027-1.015
	c0.002,0.22,0.003,0.44,0.004,0.658c0.002,0.485,0.017,0.964,0.022,1.426c0.02,0.925,0.048,1.788,0.082,2.528
	c0.063,1.48,0.151,2.468,0.151,2.468s0.089-0.987,0.152-2.468c0.033-0.74,0.062-1.604,0.081-2.528
	c0.007-0.462,0.021-0.94,0.022-1.426c0.002-0.218,0.003-0.438,0.005-0.658c0.343,0.339,0.688,0.68,1.026,1.014
	c0.516,0.513,1.037,1.003,1.534,1.484c0.998,0.959,1.941,1.843,2.761,2.59c1.633,1.499,2.771,2.45,2.771,2.45
	s-0.95-1.139-2.449-2.771C99.89,318.144,99.006,317.2,98.047,316.2z"/>
<path fill="#F8DE16" d="M312.393,305.977c-0.48-0.497-0.971-1.019-1.484-1.533c-0.334-0.339-0.674-0.683-1.014-1.027
	c0.221-0.002,0.441-0.002,0.658-0.004c0.486-0.001,0.963-0.016,1.426-0.023c0.926-0.018,1.789-0.047,2.529-0.081
	c1.48-0.063,2.467-0.151,2.467-0.151s-0.986-0.089-2.467-0.152c-0.74-0.034-1.604-0.062-2.529-0.081
	c-0.461-0.007-0.939-0.021-1.426-0.022c-0.217-0.001-0.438-0.003-0.658-0.005c0.34-0.343,0.68-0.688,1.014-1.026
	c0.514-0.515,1.004-1.036,1.484-1.533c0.959-0.998,1.844-1.941,2.59-2.762c1.5-1.633,2.451-2.77,2.451-2.77
	s-1.139,0.949-2.771,2.449c-0.82,0.747-1.764,1.63-2.762,2.589c-0.496,0.482-1.018,0.972-1.533,1.485
	c-0.338,0.334-0.684,0.674-1.027,1.013c0-0.22-0.002-0.44-0.004-0.657c0-0.485-0.016-0.963-0.021-1.426
	c-0.02-0.925-0.047-1.789-0.082-2.528c-0.062-1.479-0.152-2.467-0.152-2.467s-0.09,0.987-0.152,2.467
	c-0.033,0.739-0.062,1.604-0.08,2.528c-0.008,0.463-0.023,0.94-0.023,1.426c-0.002,0.217-0.002,0.438-0.004,0.657
	c-0.344-0.339-0.689-0.679-1.027-1.013c-0.514-0.515-1.035-1.004-1.533-1.486c-0.998-0.959-1.941-1.842-2.76-2.589
	c-1.633-1.499-2.771-2.448-2.771-2.448s0.949,1.138,2.449,2.771c0.746,0.819,1.629,1.763,2.588,2.761
	c0.482,0.497,0.973,1.02,1.486,1.533c0.334,0.339,0.674,0.684,1.014,1.026c-0.219,0.002-0.441,0.004-0.658,0.005
	c-0.484,0-0.963,0.016-1.426,0.021c-0.924,0.02-1.789,0.048-2.529,0.082c-1.479,0.062-2.467,0.152-2.467,0.152
	s0.988,0.09,2.467,0.152c0.74,0.034,1.605,0.062,2.529,0.081c0.463,0.007,0.941,0.022,1.426,0.022
	c0.217,0.002,0.439,0.004,0.658,0.004c-0.34,0.345-0.68,0.688-1.014,1.027c-0.514,0.514-1.004,1.036-1.486,1.533
	c-0.959,0.997-1.842,1.941-2.588,2.761c-1.5,1.632-2.449,2.771-2.449,2.771s1.139-0.949,2.771-2.449
	c0.818-0.747,1.762-1.63,2.76-2.59c0.498-0.481,1.02-0.971,1.533-1.484c0.338-0.335,0.684-0.675,1.027-1.014
	c0.002,0.219,0.002,0.439,0.004,0.657c0.002,0.485,0.016,0.964,0.023,1.426c0.018,0.925,0.047,1.788,0.08,2.528
	c0.064,1.48,0.152,2.468,0.152,2.468s0.088-0.987,0.152-2.468c0.033-0.74,0.062-1.604,0.082-2.528
	c0.006-0.462,0.021-0.94,0.021-1.426c0.002-0.218,0.002-0.438,0.004-0.658c0.344,0.34,0.689,0.68,1.027,1.014
	c0.516,0.514,1.037,1.004,1.533,1.485c0.998,0.958,1.941,1.843,2.762,2.589c1.633,1.499,2.771,2.45,2.771,2.45
	s-0.951-1.139-2.451-2.771C314.236,307.919,313.352,306.976,312.393,305.977z"/>
<path fill="#64C5C1" d="M82.483,85.999c-0.403-0.415-0.814-0.853-1.243-1.283c-0.28-0.284-0.564-0.572-0.85-0.86
	c0.185-0.001,0.37-0.002,0.552-0.004c0.407,0,0.807-0.013,1.193-0.019c0.775-0.016,1.498-0.04,2.117-0.068
	c1.24-0.053,2.066-0.127,2.066-0.127s-0.826-0.074-2.066-0.127c-0.619-0.029-1.342-0.053-2.117-0.068
	c-0.387-0.006-0.786-0.018-1.193-0.019c-0.182-0.001-0.367-0.003-0.552-0.004c0.285-0.287,0.569-0.576,0.85-0.859
	c0.429-0.432,0.84-0.868,1.243-1.284c0.803-0.836,1.543-1.626,2.168-2.312c1.256-1.368,2.052-2.319,2.052-2.319
	s-0.953,0.795-2.319,2.051c-0.687,0.626-1.477,1.365-2.312,2.168c-0.416,0.404-0.853,0.813-1.284,1.243
	c-0.284,0.28-0.573,0.564-0.86,0.849c-0.001-0.184-0.002-0.369-0.004-0.551c0-0.406-0.012-0.806-0.018-1.193
	c-0.017-0.774-0.04-1.498-0.068-2.117c-0.054-1.239-0.128-2.066-0.128-2.066s-0.074,0.827-0.128,2.066
	c-0.028,0.619-0.052,1.343-0.067,2.117c-0.006,0.388-0.019,0.787-0.019,1.193c-0.002,0.182-0.003,0.367-0.004,0.551
	c-0.287-0.284-0.576-0.568-0.86-0.849c-0.43-0.431-0.867-0.841-1.283-1.244c-0.836-0.803-1.626-1.542-2.312-2.168
	c-1.366-1.255-2.32-2.05-2.32-2.05s0.795,0.953,2.051,2.32c0.625,0.686,1.364,1.476,2.169,2.312
	c0.403,0.416,0.812,0.854,1.243,1.284c0.279,0.283,0.565,0.572,0.849,0.859c-0.184,0.001-0.368,0.003-0.551,0.003
	c-0.406,0.001-0.807,0.014-1.193,0.019c-0.774,0.017-1.498,0.04-2.118,0.068c-1.239,0.053-2.065,0.128-2.065,0.128
	s0.826,0.075,2.065,0.127c0.62,0.029,1.344,0.053,2.118,0.068c0.387,0.006,0.787,0.019,1.193,0.019
	c0.183,0.002,0.367,0.003,0.551,0.004c-0.283,0.288-0.569,0.576-0.849,0.86c-0.431,0.43-0.84,0.867-1.243,1.283
	c-0.805,0.835-1.544,1.626-2.169,2.312c-1.256,1.367-2.051,2.321-2.051,2.321s0.954-0.795,2.32-2.051
	c0.687-0.625,1.477-1.365,2.312-2.169c0.416-0.403,0.854-0.812,1.283-1.242c0.284-0.281,0.573-0.565,0.86-0.85
	c0.001,0.184,0.002,0.368,0.004,0.551c0.001,0.406,0.013,0.807,0.019,1.193c0.016,0.775,0.04,1.498,0.068,2.118
	c0.053,1.239,0.127,2.065,0.127,2.065s0.074-0.826,0.127-2.065c0.029-0.62,0.053-1.343,0.069-2.118
	c0.005-0.387,0.018-0.787,0.018-1.193c0.001-0.183,0.003-0.367,0.004-0.551c0.287,0.283,0.576,0.568,0.86,0.849
	c0.432,0.43,0.868,0.84,1.284,1.243c0.836,0.803,1.626,1.543,2.312,2.168c1.366,1.256,2.319,2.052,2.319,2.052
	s-0.796-0.953-2.052-2.32C84.026,87.626,83.286,86.836,82.483,85.999z"/>
<circle fill="#FFFFFF" cx="146.167" cy="178.765" r="5.129"/>
</svg>
