<?xml version="1.0" encoding="utf-8"?>
<!-- Generator: Adobe Illustrator 16.0.0, SVG Export Plug-In . SVG Version: 6.00 Build 0)  -->
<!DOCTYPE svg PUBLIC "-//W3C//DTD SVG 1.1//EN" "http://www.w3.org/Graphics/SVG/1.1/DTD/svg11.dtd">
<svg version="1.1" id="Layer_1" xmlns="http://www.w3.org/2000/svg" xmlns:xlink="http://www.w3.org/1999/xlink" x="0px" y="0px"
	 width="107.483px" height="272.108px" viewBox="0 0 107.483 272.108" enable-background="new 0 0 107.483 272.108"
	 xml:space="preserve">
<rect x="43.876" y="41.85" fill-rule="evenodd" clip-rule="evenodd" fill="#FFDECC" width="18.254" height="27.435"/>
<path fill-rule="evenodd" clip-rule="evenodd" fill="#E69D00" d="M70.614,9.94c1.766-0.748,6.236,3.376,8.035,10.037
	c-5.419-2.923-0.967,0.065-0.787,9.302c0.189,9.922-1.807,13.213-5.094,16.946c-2.048-8.021-5.951,9.398-19.354,9.342
	c-12.605-0.055-16.409-15.115-17.12-7.038c-6.011-5.88-7.522-11.963-7.474-19.57c0.053-8.624,7.588-13.74-0.818-8.513
	c4.019-8.307,9.059-12.226,13.756-14.589C50.188,1.613,61.993,1.286,70.614,9.94z"/>
<path fill-rule="evenodd" clip-rule="evenodd" fill="#E9425F" d="M29.154,75.097l50.288,1.21
	c1.906,28.804,2.822,41.967,6.135,61.098H20.819c2.603-16.822,7.209-24.418,8.492-42.135c0.2-2.759,0.256-5.278,0.473-8.512
	C29.96,84.144,28.962,78.092,29.154,75.097z"/>
<path fill-rule="evenodd" clip-rule="evenodd" fill="#4E7591" d="M84.378,136.841c1.039,1.912,1.678,5.262,1.678,11.736
	s-14.752,13.944-32.857,13.944c-18.104,0-32.99-5.198-32.99-11.673s0.772-12.096,1.812-14.008H84.378z"/>
<path fill-rule="evenodd" clip-rule="evenodd" fill="#456673" d="M17.362,161.076h70.926c1.803,0,3.281,1.477,3.281,3.281v7.926
	c0,1.807-1.479,3.284-3.281,3.284H17.362c-1.805,0-3.282-1.478-3.282-3.284v-7.926C14.08,162.553,15.558,161.076,17.362,161.076z"/>
<path fill-rule="evenodd" clip-rule="evenodd" fill="#E9425F" d="M65.69,62.463c-0.125,0.198-23.861,1.979-25.621,0.307
	c-3.858,5.503-4.842,3.752-11.467,5.233c-6.596,1.476-7.539,8.61-7.55,14.19l70.231,1.468c-0.012-5.581-0.133-13.928-6.861-15.432
	C77.694,66.726,69.349,68.218,65.69,62.463z"/>
<path fill-rule="evenodd" clip-rule="evenodd" fill="#E9425F" d="M69.985,101.234l15.816,5.836
	c8.332,3.069,12.088-10.613,3.238-11.349l-18.144-1.507C62.047,93.479,61.655,98.163,69.985,101.234z"/>
<rect x="47.339" y="174.33" fill-rule="evenodd" clip-rule="evenodd" fill="#456673" width="10.971" height="69.375"/>
<g>
	
		<rect x="72.392" y="222.814" transform="matrix(-0.3798 0.9251 -0.9251 -0.3798 333.0549 269.6547)" fill-rule="evenodd" clip-rule="evenodd" fill="#456673" width="7.483" height="47.321"/>
	
		<rect x="25.774" y="222.815" transform="matrix(0.3799 0.925 -0.925 0.3799 246.2978 125.5359)" fill-rule="evenodd" clip-rule="evenodd" fill="#456673" width="7.483" height="47.32"/>
</g>
<path fill-rule="evenodd" clip-rule="evenodd" fill="#03353B" d="M47.67,228.499c1.819,8.255,7.554,23.283,5.511,26.763
	c-2.305,3.924-9.84,4.771-12.567,2.41c-2.881-2.493-1.909-19.832-1.735-28.327c0.147-7.251-14.096-54.016-17.063-75.61
	c-2.87-20.887,20.452-25.718,23.202-3.121C48.253,177.209,43.315,208.731,47.67,228.499z"/>
<path fill-rule="evenodd" clip-rule="evenodd" fill="#03353B" d="M69.054,228.979c-0.09,8.451,2.11,24.385-0.666,27.315
	c-3.129,3.304-10.66,2.429-12.786-0.485c-2.243-3.077,2.611-19.753,4.694-27.987c1.778-7.031-1.557-55.806,0.422-77.512
	c1.912-20.994,25.723-20.445,23.307,2.19C81.183,179.139,69.266,208.736,69.054,228.979z"/>
<path fill-rule="evenodd" clip-rule="evenodd" fill="#5A86A6" d="M53.694,232.039c1.412-9.339,3.521-60.679,5.582-81.671
	c2.192-22.351,29.307-22.218,26.604,1.801c-2.951,26.248-11.65,60.979-12.182,81.192L53.694,232.039z"/>
<path fill-rule="evenodd" clip-rule="evenodd" fill="#5A86A6" d="M33.396,234.943c-0.729-9.418-10.247-59.91-12.973-80.828
	c-2.901-22.268,23.544-28.251,26.325-4.242c3.039,26.237,2.396,62.036,6.436,81.849L33.396,234.943z"/>
<path fill-rule="evenodd" clip-rule="evenodd" fill="#456673" d="M96.601,266.399c4.119,0,7.479-3.359,7.479-7.478
	c0-4.12-3.359-7.478-7.479-7.478s-7.479,3.357-7.479,7.478C89.122,263.04,92.481,266.399,96.601,266.399z"/>
<path fill-rule="evenodd" clip-rule="evenodd" fill="#456673" d="M9.049,266.399c4.119,0,7.479-3.359,7.479-7.478
	c0-4.12-3.359-7.478-7.479-7.478c-4.118,0-7.479,3.357-7.479,7.478C1.57,263.04,4.931,266.399,9.049,266.399z"/>
<path fill-rule="evenodd" clip-rule="evenodd" fill="#E0B9A3" d="M57.101,40.529h5.029v18.56l-18.254-5.405v-2.802
	C47.442,45.614,52.06,42.375,57.101,40.529z"/>
<path fill-rule="evenodd" clip-rule="evenodd" fill="#E9425F" d="M76.3,81.853l6.67,19.717c2.207,8.599,12.129,6.83,10.947-1.97
	L90.622,75.49C89.44,66.688,74.095,73.252,76.3,81.853z"/>
<polygon fill-rule="evenodd" clip-rule="evenodd" fill="#B73753" points="62.13,59.684 52.808,63.529 61.515,71.462 65.939,63.797 
	"/>
<polygon fill-rule="evenodd" clip-rule="evenodd" fill="#B73753" points="43.876,59.684 53.198,63.529 44.491,71.462 40.069,63.797 
	"/>
<path fill-rule="evenodd" clip-rule="evenodd" fill="#FFDECC" d="M52.81,53.128c-7.502,0-15.355-5.756-19.256-12.691
	C27.212,29.159,35.472,2.752,52.81,2.752c17.335,0,26.381,26.518,19.254,37.572C66.438,49.052,60.31,53.128,52.81,53.128z"/>
<path fill-rule="evenodd" clip-rule="evenodd" fill="#FFDECC" d="M28.878,25.161c1.751-0.745,4.227,1.08,5.527,4.074
	c1.301,2.996,0.936,6.024-0.816,6.768c-1.752,0.745-4.227-1.08-5.527-4.074C26.759,28.934,27.124,25.905,28.878,25.161z"/>
<path fill-rule="evenodd" clip-rule="evenodd" fill="#FFDECC" d="M77.222,25.161c-1.753-0.745-4.228,1.08-5.529,4.074
	c-1.301,2.996-0.935,6.024,0.818,6.768c1.75,0.745,4.227-1.08,5.527-4.074C79.339,28.934,78.974,25.905,77.222,25.161z"/>
<path fill-rule="evenodd" clip-rule="evenodd" fill="#E69D00" d="M70.771,33.726c0,0-1.42-12.554-4.633-16.75
	c-2.787,3.902-10.146,6.041-18.17,4.94c13.777-6.168-3.43,0.748-6.635-2.111c-3.053,1.531-4.557,9.4-6.02,14.145
	c-5.126-8.469-2.958-18.671,0.578-23.496c6.827-9.315,21.449-11.378,31.436-2.909C74.255,13.423,76.474,26.106,70.771,33.726z"/>
<path fill-rule="evenodd" clip-rule="evenodd" fill="#E9425F" d="M21.766,75.817c0,0-8.606,36.864,0.14,38.046l15.285-7.564
	l-2.442-8.353l-6.854,2.364l2.049-20.802L21.766,75.817z"/>
<path fill-rule="evenodd" clip-rule="evenodd" fill="#FFDECC" d="M46.737,97.729L46.737,97.729
	c-0.019,0.628-0.543,1.108-1.171,1.114l-2.878,0.024c-0.627,0.006-1.129-0.543-1.113-1.172l0,0c0.018-0.625,0.543-1.106,1.17-1.11
	l2.877-0.024C46.253,96.554,46.749,97.101,46.737,97.729z"/>
<path fill-rule="evenodd" clip-rule="evenodd" fill="#F5CDB8" d="M39.925,104.663c-3.246,1.566-6.24,1.694-7.395-0.696
	c-1.157-2.39,0.535-5.602,3.782-7.169c3.245-1.568,6.812-0.901,7.965,1.49C45.434,100.676,43.165,103.094,39.925,104.663z"/>
<g>
	<polygon fill="#E6E7E8" points="28.883,104.872 28.168,82.938 82.86,93.943 	"/>
	<polygon fill="#F1F1F2" points="36.682,75.271 28.168,82.938 82.86,93.943 	"/>
	<polygon fill="#DBDCDD" points="28.883,104.872 23.979,86.709 82.86,93.943 	"/>
	<polygon fill="#F1F1F2" points="9.513,99.74 23.979,86.709 82.86,93.943 	"/>
</g>
<g>
	<path fill-rule="evenodd" clip-rule="evenodd" fill="#FFDECC" d="M43.458,105.16L43.458,105.16
		c-0.617,0.116-1.216-0.297-1.33-0.913l-0.344-1.857c-0.113-0.617,0.299-1.217,0.916-1.33l0,0c0.617-0.115,1.215,0.297,1.33,0.916
		l0.344,1.856C44.487,104.449,44.074,105.047,43.458,105.16z"/>
	<path fill-rule="evenodd" clip-rule="evenodd" fill="#FFDECC" d="M40.702,105.921L40.702,105.921
		c-0.621,0.104-1.209-0.319-1.312-0.94l-0.855-5.158c-0.102-0.62,0.321-1.209,0.941-1.313l0,0c0.621-0.103,1.21,0.32,1.314,0.938
		l0.85,5.162C41.743,105.229,41.323,105.819,40.702,105.921z"/>
	<path fill-rule="evenodd" clip-rule="evenodd" fill="#FFDECC" d="M37.704,106.235L37.704,106.235
		c-0.618,0.107-1.209-0.312-1.316-0.933l-0.889-5.15c-0.108-0.619,0.312-1.213,0.932-1.321l0,0c0.619-0.107,1.211,0.312,1.317,0.931
		l0.89,5.154C38.745,105.535,38.326,106.129,37.704,106.235z"/>
	<path fill-rule="evenodd" clip-rule="evenodd" fill="#FFDECC" d="M34.821,106.745L34.821,106.745
		c-0.619,0.105-1.211-0.318-1.314-0.935l-0.867-5.158c-0.107-0.617,0.313-1.211,0.934-1.315l0,0
		c0.625-0.105,1.212,0.317,1.318,0.938l0.865,5.156C35.86,106.05,35.438,106.643,34.821,106.745z"/>
</g>
<path fill-rule="evenodd" clip-rule="evenodd" fill="#FFDECC" d="M67.759,86.002L67.759,86.002c0.309,0.547,0.114,1.249-0.432,1.557
	l-2.557,1.442c-0.547,0.309-1.248,0.113-1.557-0.434l0,0c-0.309-0.546-0.113-1.247,0.434-1.555l2.557-1.442
	C66.751,85.26,67.45,85.455,67.759,86.002z"/>
<path fill-rule="evenodd" clip-rule="evenodd" fill="#FFDECC" d="M70.642,87.271L70.642,87.271c0.309,0.547,0.013,1.306-0.658,1.685
	l-3.135,1.769c-0.671,0.378-1.475,0.24-1.783-0.307l0,0c-0.308-0.546-0.01-1.304,0.66-1.682l3.136-1.77
	C69.532,86.585,70.333,86.724,70.642,87.271z"/>
</svg>
