<?xml version="1.0" encoding="utf-8"?>
<!-- Generator: Adobe Illustrator 16.0.0, SVG Export Plug-In . SVG Version: 6.00 Build 0)  -->
<!DOCTYPE svg PUBLIC "-//W3C//DTD SVG 1.1//EN" "http://www.w3.org/Graphics/SVG/1.1/DTD/svg11.dtd">
<svg version="1.1" id="Layer_1" xmlns="http://www.w3.org/2000/svg" xmlns:xlink="http://www.w3.org/1999/xlink" x="0px" y="0px"
	 width="599.32px" height="85.714px" viewBox="0 0 599.32 85.714" enable-background="new 0 0 599.32 85.714" xml:space="preserve">
<g>
	<g>
		<path fill="#FFFFFF" d="M41.859,34.014c0,0,24.834,14.365,71.816-6.288c0,0,30.526-15.559,51.473,4.19
			c0,0-19.446-9.873-44.581,10.771c0,0-19.605,20.8-48.933,16.917C71.634,59.604,46.941,56.905,41.859,34.014z"/>
		<path fill="#FFFFFF" d="M89.136,31.769c0,0-16.456,9.276-43.688-0.301c0,0-32.174-12.494-33.822-3.29
			c0,0-4.489,13.47,31.425,18.251c0,0-34.266-2.542-37.705-16.456c0,0-3.292-15.711,16.159-16.458c0,0,8.077-1.204,23.943,6.284
			C45.447,19.799,72.375,36.258,89.136,31.769z"/>
	</g>
	<path fill="#FFFFFF" d="M211.657,61.011l5.473-8.412c4.878,3.528,10.018,5.387,14.224,5.387c3.707,0,5.39-1.347,5.39-3.372V54.45
		c0-2.784-4.377-3.709-9.344-5.221c-6.316-1.856-13.47-4.8-13.47-13.555v-0.169c0-9.177,7.407-14.314,16.5-14.314
		c5.728,0,11.958,1.938,16.842,5.218l-4.884,8.843c-4.466-2.612-8.924-4.215-12.205-4.215c-3.118,0-4.721,1.353-4.721,3.121v0.166
		c0,2.528,4.294,3.706,9.178,5.39c6.313,2.106,13.641,5.134,13.641,13.386v0.169c0,10.018-7.493,14.57-17.264,14.57
		C224.701,67.838,217.631,65.729,211.657,61.011z"/>
	<path fill="#FFFFFF" d="M255.263,44.679v-0.166c0-12.967,10.441-23.491,24.499-23.491c13.978,0,24.336,10.355,24.336,23.322v0.168
		c0,12.961-10.437,23.491-24.498,23.491C265.622,68.004,255.263,57.646,255.263,44.679z M291.47,44.679v-0.166
		c0-6.652-4.802-12.464-11.87-12.464c-7.327,0-11.702,5.643-11.702,12.295v0.168c0,6.649,4.793,12.458,11.863,12.458
		C287.09,56.971,291.47,51.331,291.47,44.679z"/>
	<path fill="#FFFFFF" d="M321.352,62.494l-0.146-0.084c-10.998-6.715-14.918-20.649-7.725-32.442
		c4.432-7.255,9.641-10.292,15.857-11.424l3.107,11.066c-4.076,0.868-7.225,2.305-9.594,6.186
		c-3.334,5.459-0.885,12.277,4.791,15.745l0.143,0.084c5.889,3.597,12.959,2.682,16.602-3.284c2.24-3.66,2.193-7.137,1.299-11.337
		l10.375-2.443c1.809,6.239,2.129,12.346-2.564,20.038C346.43,66.164,332.344,69.203,321.352,62.494z"/>
	<path fill="#FFFFFF" d="M361.676,5.53h13.469v11.364h-13.469V5.53z M362.014,21.863h12.799v45.126h-12.799V21.863z"/>
	<path fill="#FFFFFF" d="M442.545,5.53h12.795v61.459h-12.795V5.53z"/>
	<path fill="#FFFFFF" d="M419.887,21.314v2.365c-3.387-1.693-7.293-2.657-11.533-2.657c-14.062,0-24.502,10.523-24.502,23.491v0.166
		c0,12.967,10.355,23.325,24.332,23.325c4.312,0,8.27-0.998,11.703-2.739v1.723h12.797V44.513v-0.168v-23.03H419.887z
		 M408.354,56.971c-7.068,0-11.871-5.809-11.871-12.458v-0.168c0-6.652,4.375-12.295,11.701-12.295
		c6.322,0,10.812,4.643,11.703,10.382v4.438C419.029,52.527,414.854,56.971,408.354,56.971z"/>
	<path fill="#FFFFFF" d="M466.656,77.645l4.426-9.921c4.682,2.696,7.256,4.169,13.297,4.169c8.854,0,13.023-4.35,13.023-12.705
		v-2.262c-3.83,4.697-8.002,7.571-14.895,7.571c-10.641,0-20.256-7.92-20.256-21.758v-0.175c0-13.925,9.787-21.758,20.256-21.758
		c7.064,0,11.236,3.046,14.725,6.962v-6.095h12.938v36.121c0,8.357-1.959,14.449-5.789,18.366
		c-4.258,4.354-10.809,6.267-19.66,6.267C477.316,82.427,472.445,80.778,466.656,77.645z M497.402,42.739v-0.175
		c0-6.354-4.85-10.792-11.148-10.792c-6.301,0-11.064,4.438-11.064,10.792v0.175c0,6.438,4.764,10.792,11.064,10.792
		C492.553,53.531,497.402,49.093,497.402,42.739z"/>
	<path fill="#FFFFFF" d="M521.994,4.789h13.619v11.75h-13.619V4.789z M522.334,21.673h12.938v46.653h-12.938V21.673z"/>
	<path fill="#FFFFFF" d="M547.439,21.673h12.938v6.616c2.977-3.917,6.809-7.483,13.363-7.483c9.787,0,15.49,6.613,15.49,17.32
		v30.201h-12.938V42.305c0-6.27-2.895-9.49-7.834-9.49c-4.934,0-8.082,3.221-8.082,9.49v26.022h-12.938V21.673z"/>
</g>
</svg>
