<?xml version="1.0" encoding="utf-8"?>
<!-- Generator: Adobe Illustrator 16.0.0, SVG Export Plug-In . SVG Version: 6.00 Build 0)  -->
<!DOCTYPE svg PUBLIC "-//W3C//DTD SVG 1.1//EN" "http://www.w3.org/Graphics/SVG/1.1/DTD/svg11.dtd">
<svg version="1.1" id="Layer_1" xmlns="http://www.w3.org/2000/svg" xmlns:xlink="http://www.w3.org/1999/xlink" x="0px" y="0px"
	 width="227.21px" height="76.869px" viewBox="0 0 227.21 76.869" enable-background="new 0 0 227.21 76.869" xml:space="preserve">
<g>
	<path fill="#FFFFFF" d="M54.867,36.177c0,0,32.993,19.083,95.407-8.354c0,0,40.554-20.67,68.381,5.567
		c0,0-25.834-13.116-59.225,14.309c0,0-26.047,27.632-65.007,22.474C94.423,70.174,61.619,66.588,54.867,36.177z"/>
	<path fill="#FFFFFF" d="M117.674,33.195c0,0-21.862,12.324-58.041-0.4c0,0-42.743-16.598-44.932-4.371
		c0,0-5.964,17.895,41.748,24.247c0,0-45.522-3.378-50.091-21.862c0,0-4.373-20.872,21.467-21.864c0,0,10.731-1.599,31.808,8.348
		C59.634,17.293,95.408,39.158,117.674,33.195z"/>
</g>
</svg>
