<?xml version="1.0" encoding="utf-8"?>
<!-- Generator: Adobe Illustrator 16.0.0, SVG Export Plug-In . SVG Version: 6.00 Build 0)  -->
<!DOCTYPE svg PUBLIC "-//W3C//DTD SVG 1.1//EN" "http://www.w3.org/Graphics/SVG/1.1/DTD/svg11.dtd">
<svg version="1.1" id="Layer_1" xmlns="http://www.w3.org/2000/svg" xmlns:xlink="http://www.w3.org/1999/xlink" x="0px" y="0px"
	 width="180.953px" height="272.789px" viewBox="0 0 180.953 272.789" enable-background="new 0 0 180.953 272.789"
	 xml:space="preserve">
<path fill-rule="evenodd" clip-rule="evenodd" fill="#3F3D3A" d="M83.001,83.862C64.713,84.228,62.667,62.653,63.33,51.997
	c1.235-19.868,19.266-27.836,26.627-21.013c7.824,0,11.49,9.719,12.374,20.822C103.507,66.582,98.062,83.561,83.001,83.862z"/>
<path fill-rule="evenodd" clip-rule="evenodd" fill="#12A5B5" d="M60.552,91.004h45.338c-1.671,11.618-7.098,25.43-2.192,35.933
	c3.248,6.952,7.381,11.734,7.491,16.842H55.251c0.103-6.69,4.236-10.067,9.014-16.831C71.319,116.961,62.382,103.74,60.552,91.004z"
	/>
<path fill-rule="evenodd" clip-rule="evenodd" fill="#456673" d="M52.266,165.454h61.261c1.561,0,2.837,1.276,2.837,2.835v6.847
	c0,1.561-1.276,2.836-2.837,2.836H52.266c-1.56,0-2.835-1.275-2.835-2.836v-6.847C49.431,166.73,50.707,165.454,52.266,165.454z"/>
<path fill-rule="evenodd" clip-rule="evenodd" fill="#F8DE16" d="M110.152,139.916c0.898,2.227,1.385,4.605,1.385,7.076
	c0,12.63-12.678,22.867-28.316,22.867s-28.316-10.236-28.316-22.867c0-2.471,0.487-4.849,1.385-7.076H110.152z"/>
<g>
	
		<rect x="99.797" y="218.784" transform="matrix(-0.3798 0.9251 -0.9251 -0.3798 363.4559 234.7564)" fill-rule="evenodd" clip-rule="evenodd" fill="#456673" width="6.465" height="40.874"/>
	
		<rect x="59.53" y="218.784" transform="matrix(0.3798 0.9251 -0.9251 0.3798 260.2271 90.313)" fill-rule="evenodd" clip-rule="evenodd" fill="#456673" width="6.465" height="40.873"/>
</g>
<rect x="78.16" y="176.903" fill-rule="evenodd" clip-rule="evenodd" fill="#456673" width="9.475" height="59.924"/>
<path fill-rule="evenodd" clip-rule="evenodd" fill="#FFDECC" d="M88.736,237.087c1.408,7.166,6.332,16.229,4.229,23.223
	c-2.152,7.154-7.559,7.141-10.9,1.83c-3.537-5.619-1.256-17.164-0.938-24.496c0.272-6.258-11.104-46.924-13.237-65.63
	c-2.065-18.092,18.171-21.804,20.098-2.236C90.255,192.81,85.367,219.931,88.736,237.087z"/>
<path fill-rule="evenodd" clip-rule="evenodd" fill="#F8DE16" d="M91.744,247.646c1.584,4.369,2.581,8.793,1.483,12.625
	c-2.237,7.818-8.083,7.369-11.425,2.061c-1.587-2.523-2.078-5.783-1.783-10.43c1.184,5.111,3.205,8.213,6.65,7.711
	C91.005,258.978,92.404,254.022,91.744,247.646z"/>
<rect x="77.634" y="62.47" fill-rule="evenodd" clip-rule="evenodd" fill="#FFDECC" width="10.834" height="23.698"/>
<path fill-rule="evenodd" clip-rule="evenodd" fill="#E0B9A3" d="M85.482,62.47h2.986v16.031l-10.834-4.669v-2.42
	C79.751,66.861,82.492,64.062,85.482,62.47z"/>
<path fill-rule="evenodd" clip-rule="evenodd" fill="#F8DE16" d="M88.468,79.09c-4.617,5.154-10.717,0.338-10.834,0.505
	c-3.332,4.754-10.531,6.835-16.255,8.115c-5.698,1.275-5.919,8.51-5.927,13.331h55.535c-0.008-4.821-0.115-12.031-5.926-13.331
	C99.25,86.412,91.628,84.059,88.468,79.09z"/>
<path fill-rule="evenodd" clip-rule="evenodd" fill="#F8DE16" d="M64.52,98.371l-22.87,22.75c-5.436,5.408-13.613-2.812-8.177-8.222
	l22.87-22.749C61.78,84.742,69.957,92.961,64.52,98.371z"/>
<path fill-rule="evenodd" clip-rule="evenodd" fill="#F8DE16" d="M60.439,128.486l-23.9-5.716
	c-7.458-1.783-3.897-14.717,2.929-11.219l26.776,13.727C73.067,128.776,67.897,130.27,60.439,128.486z"/>
<path fill-rule="evenodd" clip-rule="evenodd" fill="#F8DE16" d="M101.128,98.371l22.867,22.75
	c5.438,5.408,13.615-2.812,8.178-8.222l-22.869-22.749C103.867,84.742,95.69,92.961,101.128,98.371z"/>
<path fill-rule="evenodd" clip-rule="evenodd" fill="#F8DE16" d="M105.208,128.486l23.9-5.716c7.457-1.783,3.896-14.717-2.93-11.219
	l-26.775,13.727C92.58,128.776,97.75,130.27,105.208,128.486z"/>
<path fill-rule="evenodd" clip-rule="evenodd" fill="#FFDECC" d="M95.779,128.395L95.779,128.395
	c-0.248-0.481-0.837-0.657-1.328-0.424l-2.246,1.062c-0.491,0.231-0.674,0.846-0.426,1.327l0,0c0.248,0.483,0.839,0.659,1.328,0.426
	l2.246-1.062C95.845,129.493,96.029,128.877,95.779,128.395z"/>
<path fill-rule="evenodd" clip-rule="evenodd" fill="#F5CDB8" d="M99.617,126.416c-3.111,0-5.488,1.029-5.488,3.321
	c0,2.294,2.523,4.154,5.636,4.154c3.114,0,5.638-1.86,5.638-4.154C105.402,127.444,102.731,126.416,99.617,126.416z"/>
<path fill-rule="evenodd" clip-rule="evenodd" fill="#FFDECC" d="M105.279,125.674L105.279,125.674
	c-0.498-0.214-1.082,0.018-1.295,0.515l-0.646,1.498c-0.215,0.498,0.018,1.082,0.516,1.295l0,0c0.498,0.215,1.081-0.018,1.297-0.516
	l0.645-1.498C106.009,126.471,105.778,125.889,105.279,125.674z"/>
<path fill-rule="evenodd" clip-rule="evenodd" fill="#FFDECC" d="M102.524,125.209L102.524,125.209
	c-0.503-0.204-1.08,0.039-1.286,0.541l-1.71,4.181c-0.206,0.501,0.038,1.08,0.54,1.286h0.001c0.501,0.206,1.079-0.037,1.286-0.54
	l1.708-4.181C103.269,125.995,103.027,125.416,102.524,125.209z"/>
<path fill-rule="evenodd" clip-rule="evenodd" fill="#FFDECC" d="M100.042,125.066L100.042,125.066
	c-0.501-0.209-1.081,0.03-1.29,0.531l-1.737,4.168c-0.209,0.5,0.03,1.082,0.53,1.289v0.002c0.502,0.207,1.08-0.03,1.289-0.531
	l1.739-4.17C100.781,125.854,100.542,125.275,100.042,125.066z"/>
<path fill-rule="evenodd" clip-rule="evenodd" fill="#FFDECC" d="M97.466,125.144v-0.001c-0.5-0.206-1.08,0.035-1.287,0.536
	l-1.719,4.178c-0.207,0.501,0.033,1.08,0.535,1.287l0,0c0.503,0.206,1.082-0.035,1.287-0.536l1.721-4.178
	C98.21,125.929,97.97,125.35,97.466,125.144z"/>
<path fill-rule="evenodd" clip-rule="evenodd" fill="#FFDECC" d="M69.869,128.395L69.869,128.395
	c0.248-0.481,0.838-0.657,1.327-0.424l2.247,1.062c0.49,0.231,0.674,0.846,0.425,1.327l0,0c-0.249,0.483-0.837,0.659-1.329,0.426
	l-2.246-1.062C69.803,129.493,69.621,128.877,69.869,128.395z"/>
<path fill-rule="evenodd" clip-rule="evenodd" fill="#F5CDB8" d="M66.029,126.416c3.113,0,5.489,1.029,5.489,3.321
	c0,2.294-2.523,4.154-5.636,4.154s-5.636-1.86-5.636-4.154C60.247,127.444,62.917,126.416,66.029,126.416z"/>
<path fill-rule="evenodd" clip-rule="evenodd" fill="#FFDECC" d="M60.368,125.674L60.368,125.674
	c0.499-0.215,1.081,0.018,1.297,0.515l0.645,1.498c0.216,0.498-0.016,1.082-0.515,1.295l0,0c-0.498,0.215-1.082-0.018-1.296-0.516
	l-0.645-1.498C59.638,126.471,59.871,125.889,60.368,125.674z"/>
<path fill-rule="evenodd" clip-rule="evenodd" fill="#FFDECC" d="M63.123,125.209L63.123,125.209
	c0.502-0.204,1.082,0.039,1.287,0.541l1.711,4.181c0.203,0.501-0.039,1.08-0.541,1.286l0,0c-0.503,0.206-1.082-0.037-1.286-0.54
	l-1.71-4.181C62.378,125.995,62.623,125.416,63.123,125.209z"/>
<path fill-rule="evenodd" clip-rule="evenodd" fill="#FFDECC" d="M65.607,125.066L65.607,125.066c0.5-0.209,1.08,0.03,1.289,0.531
	l1.736,4.168c0.209,0.5-0.028,1.082-0.529,1.289v0.002c-0.501,0.207-1.082-0.03-1.291-0.531l-1.736-4.17
	C64.867,125.854,65.105,125.275,65.607,125.066z"/>
<path fill-rule="evenodd" clip-rule="evenodd" fill="#FFDECC" d="M68.179,125.144l0.002-0.001c0.501-0.206,1.08,0.035,1.287,0.536
	l1.72,4.178c0.206,0.501-0.035,1.08-0.536,1.287l0,0c-0.502,0.206-1.082-0.035-1.287-0.536l-1.721-4.178
	C67.437,125.929,67.679,125.35,68.179,125.144z"/>
<path fill-rule="evenodd" clip-rule="evenodd" fill="#E0B9A3" d="M88.143,205.644c-3.478-3.182-18.581-37.658-15.301-47.396
	C76.121,148.51,92.019,191.235,88.143,205.644z"/>
<path fill-rule="evenodd" clip-rule="evenodd" fill="#FFDECC" d="M102.753,225.698c2.355,6.91,8.449,15.229,7.305,22.441
	c-1.173,7.381-6.533,8.092-10.556,3.277c-4.257-5.094-3.546-16.84-4.216-24.148c-0.57-6.238-17.295-45.01-21.922-63.263
	c-4.471-17.652,15.083-24.044,19.618-4.909C98.319,181.614,97.113,209.147,102.753,225.698z"/>
<path fill-rule="evenodd" clip-rule="evenodd" fill="#F8DE16" d="M107.15,235.755c2.154,4.117,3.737,8.367,3.163,12.314
	c-1.169,8.045-7.022,8.385-11.044,3.572c-1.912-2.287-2.836-5.451-3.168-10.098c1.859,4.908,4.279,7.711,7.625,6.75
	C107.938,247.085,108.659,241.987,107.15,235.755z"/>
<path fill-rule="evenodd" clip-rule="evenodd" fill="#FFDECC" d="M82.896,73.197c-4.391,0-13.67-6.906-16.538-16.794
	c-2.897-9.987,2.559-24.311,16.538-24.311c13.982,0,19.437,14.323,16.539,24.311C96.568,66.292,87.291,73.197,82.896,73.197z"/>
<ellipse transform="matrix(-0.3947 -0.9188 0.9188 -0.3947 40.9954 136.6083)" fill-rule="evenodd" clip-rule="evenodd" fill="#FFDECC" cx="65.498" cy="54.8" rx="4.814" ry="2.784"/>
<ellipse transform="matrix(0.3947 -0.9188 0.9188 0.3947 10.5973 125.6849)" fill-rule="evenodd" clip-rule="evenodd" fill="#FFDECC" cx="100.685" cy="54.8" rx="4.814" ry="2.784"/>
<path fill-rule="evenodd" clip-rule="evenodd" fill="#456673" d="M120.71,256.431c3.557,0,6.459-2.9,6.459-6.459
	s-2.902-6.459-6.459-6.459c-3.559,0-6.461,2.9-6.461,6.459S117.152,256.431,120.71,256.431z"/>
<path fill-rule="evenodd" clip-rule="evenodd" fill="#456673" d="M45.084,256.431c3.558,0,6.459-2.9,6.459-6.459
	s-2.901-6.459-6.459-6.459c-3.557,0-6.459,2.9-6.459,6.459S41.527,256.431,45.084,256.431z"/>
<path fill-rule="evenodd" clip-rule="evenodd" fill="#3F3D3A" d="M98.659,54.355c4.78-20.489-9.647-23.974-18.065-23.974
	c-9.479,0-16.627,11.251-15.027,24.355c5.057-3.05,9.513-9.072,20.568-18.893c-1.609,2.881-4.744,8.126-15.398,17.633
	c5.735,0.946,16.416-6.282,22.109-13.845C94.205,45.009,96.161,50.895,98.659,54.355z"/>
<path fill="#F8DE16" d="M96.345,39.038l3.32,0.22l-0.533-0.603l0.613-0.576l-3.63-0.241c0.919-1.072,1.2-1.996,1.112-2.691
	c-0.113-0.886-0.762-1.423-1.482-1.541c-0.111-0.018-0.225-0.026-0.338-0.022c-0.614,0.013-1.229,0.33-1.574,0.996
	c-0.219,0.421-0.301,1-0.191,1.721c-0.468-0.376-0.945-0.726-1.436-1.043c-2.613-1.681-5.572-2.528-8.574-2.559
	c-2.996-0.03-6.031,0.754-8.807,2.333c-4.709,2.678-8.676,7.644-10.42,14.799c0.189-0.341,0.453-0.598,0.783-0.742
	c0.212-0.089,0.437-0.128,0.671-0.12c1.788-6.199,5.358-10.525,9.549-12.908c2.596-1.477,5.425-2.208,8.212-2.18
	c2.781,0.028,5.523,0.812,7.945,2.374c0.131,0.084,0.256,0.188,0.385,0.279c-0.162,0.021-0.32,0.049-0.457,0.097
	c-0.838,0.303-1.238,1.045-1.218,1.771c0.022,0.729,0.471,1.44,1.333,1.668c0.307,0.082,0.67,0.098,1.086,0.016
	c0.5-0.096,1.081-0.345,1.727-0.764l-0.237,3.629l0.652-0.533l0.526,0.606l0.199-3.052c1.795,2.326,3.183,5.315,3.933,9.006
	c0.277-0.03,0.547,0.005,0.798,0.11c0.185,0.081,0.351,0.198,0.49,0.344C100.017,45.126,98.437,41.67,96.345,39.038z M94.882,35.125
	c0.119-0.227,0.321-0.341,0.525-0.356c0.051-0.003,0.099-0.001,0.148,0.006c0.244,0.04,0.461,0.224,0.499,0.525
	c0.05,0.375-0.118,0.898-0.647,1.563c-0.09,0.111-0.187,0.223-0.295,0.344C94.68,36.192,94.68,35.519,94.882,35.125z M92.695,38.885
	c-0.318,0.092-0.574,0.099-0.781,0.044c-0.295-0.078-0.447-0.317-0.454-0.563c-0.008-0.255,0.138-0.514,0.436-0.622
	c0.206-0.075,0.47-0.091,0.8-0.021c0.341,0.07,0.75,0.234,1.234,0.52C93.447,38.582,93.037,38.784,92.695,38.885z"/>
<path fill="none" stroke="#64C5C1" stroke-miterlimit="10" stroke-dasharray="1,1" d="M55.667,117.985
	c0,0-12.299-5.029-16.573-13.943c0,0-6.606-17.348-2.931-21.023s11.435-8.167,9.8,3.267c-1.633,11.434-15.926,30.627-30.627,21.644
	C0.636,98.945,7.17,86.286,18.604,78.527"/>
<path fill="none" stroke="#64C5C1" stroke-miterlimit="10" stroke-dasharray="1,1" d="M110.08,115.782
	c8.662-4.765,36.564-4.915,36.564-4.915s14.941-2.751,9.633-11.794c-5.309-9.043-19.66-23.394-24.18-17.692
	c-4.521,5.701,11.4,14.94,18.871,1.573s4.914-9.239,4.914-9.239"/>
<polygon fill="#38A1BA" points="155.708,76.242 152.501,67.713 175.474,64.748 "/>
<polygon fill="#43BDEF" points="154.828,63.564 152.501,67.713 175.474,64.748 "/>
<polygon fill="#38A1BA" points="155.708,76.242 151.359,69.755 175.474,64.748 "/>
<path id="XMLID_47_" fill="#3F3D3A" fill-opacity="0.5" d="M168.253,55.178c-0.523,0.461-1.115,0.846-1.775,1.144
	c0.568-0.635,0.895-1.457,0.9-2.318c-0.531,0.592-1.168,1.101-1.891,1.496c-0.824-0.451-1.83-0.573-2.803-0.263
	c-1.871,0.597-2.906,2.57-2.322,4.409c0.086,0.262,0.195,0.502,0.33,0.729c-2.855,0.761-5.771,0.23-8.08-1.252
	c-0.133,0.583-0.119,1.21,0.074,1.82c0.371,1.155,1.295,1.983,2.391,2.291c-0.559,0.158-1.131,0.176-1.666,0.074
	c0.004,0.013,0.012,0.027,0.014,0.04c0.139,0.428,0.35,0.806,0.617,1.136c0.746,0.91,1.93,1.401,3.139,1.264
	c-0.26,0.166-0.545,0.303-0.852,0.403c-0.221,0.069-0.438,0.117-0.658,0.142c0.854,1.184,2.41,1.749,3.896,1.303
	c-0.871,1.264-2.158,2.26-3.744,2.768c-0.273,0.084-0.549,0.157-0.824,0.211c1.803,0.466,3.754,0.448,5.664-0.16
	c5.287-1.689,7.367-6.389,7.01-10.463c-0.061-0.719-0.199-1.421-0.41-2.082c-0.045-0.144-0.094-0.289-0.146-0.429
	C167.628,56.76,168.013,55.99,168.253,55.178z"/>
<path fill="none" stroke="#64C5C1" stroke-miterlimit="10" stroke-dasharray="1,1" d="M101.128,98.371c0,0-4.663-27.33,5.684-44.754
	c10.346-17.424,33.213-31.034,40.836-18.512c7.623,12.522-20.689,14.157-34.846-9.801"/>
<polygon fill="#5373A5" points="113.673,27.739 118.273,20.019 96.488,13.134 "/>
<polygon fill="#6081C4" points="116.74,15.584 118.273,20.019 96.488,13.134 "/>
<polygon fill="#5373A5" points="113.673,27.739 119.027,22.201 96.488,13.134 "/>
<path id="XMLID_33_" fill="#3F3D3A" fill-opacity="0.5" d="M110.431,10.952l0.48-0.905c0.23-0.442-0.007-0.699-0.215-0.81
	c-0.205-0.107-1.27-0.672-1.27-0.672l1.024-1.938l1.755,0.917c1.941,1.027,1.615,2.708,1.126,3.635l-0.542,1.022l1.123,0.592
	l-0.723,1.369l-0.476,0.895l-1.13-0.598c-1.358,2.566-2.996,5.66-2.996,5.66l-2.264-1.198c0,0,1.654-3.126,2.996-5.658l-1.681-0.89
	l0.39-0.932l0.602-1.442L110.431,10.952z"/>
<g>
	<g>
		<path fill="#D1D3D4" d="M113.775,99.99l-0.402,5.42l-0.371,5.025l-0.442,5.992l-1.376,18.649
			c-0.111,1.469-1.336,2.604-2.805,2.604H56.686c-1.47,0-2.694-1.134-2.804-2.604l-0.627-8.517L51.29,99.99
			c-0.118-1.63,1.169-3.018,2.805-3.018h56.876C112.605,96.972,113.892,98.359,113.775,99.99z"/>
		<path opacity="0.36" fill="#BCBEC0" d="M113.775,99.99l-0.402,5.42l-48.717,32.269h-7.97c-1.47,0-2.694-1.134-2.804-2.604
			l-0.627-8.517l46.735-29.587h10.979C112.605,96.972,113.892,98.359,113.775,99.99z"/>
		<polygon opacity="0.36" fill="#BCBEC0" points="113.001,110.435 112.559,116.427 82.5,137.679 71.485,137.679 		"/>
		<circle fill="#BCBEC0" cx="82.532" cy="117.326" r="6.022"/>
	</g>
	<path fill="#BCBEC0" d="M110.232,139.495H54.833c-0.501,0-0.909-0.409-0.909-0.908l0,0c0-0.498,0.408-0.908,0.909-0.908h55.399
		c0.5,0,0.909,0.41,0.909,0.908l0,0C111.141,139.086,110.732,139.495,110.232,139.495z"/>
</g>
<g>
	<polygon fill="#2581A5" points="27.758,81.344 17.158,72.004 46.443,51.215 	"/>
	<polygon fill="#2797CF" points="17.319,64.631 17.158,72.004 46.443,51.215 	"/>
	<polygon fill="#2581A5" points="27.758,81.344 17.08,75.631 46.443,51.215 	"/>
	<g opacity="0.5">
		<polygon id="XMLID_3_" fill="#3F3D3A" points="16.585,68.243 23.626,75.111 26.901,71.755 19.292,64.334 17.312,62.404 
			14.041,65.762 		"/>
		<path id="XMLID_2_" fill="#3F3D3A" d="M10.884,59.408c-0.904,0.925-0.887,2.411,0.038,3.315c0.929,0.904,2.414,0.885,3.315-0.043
			c0.904-0.925,0.885-2.41-0.04-3.313C13.27,58.462,11.785,58.481,10.884,59.408z"/>
		<path id="XMLID_1_" fill="#3F3D3A" d="M30.94,54.325c-2.031-1.536-3.977-1.814-6.362,0.63c-1.41,1.447-1.825,2.945-1.455,4.081
			l-0.042,0.043l-1.292-1.263l-2.608,2.672l1.841,1.796l7.748,7.553l2.726-2.79l-4.753-4.635c-1.254-1.224-2.236-2.642-0.723-4.194
			c1.49-1.525,3.041-0.252,4.155,0.834l4.671,4.557l2.804-2.877l-5.267-5.138h0.001C31.894,55.113,31.414,54.684,30.94,54.325z"/>
	</g>
	<g>
		<polygon id="XMLID_106_" fill="#FFFFFF" points="16.783,68.662 23.621,75.333 26.8,72.074 19.412,64.867 17.489,62.993 
			14.312,66.253 		"/>
		<circle id="XMLID_105_" fill="#FFFFFF" cx="12.875" cy="61.672" r="2.275"/>
		<path id="XMLID_104_" fill="#FFFFFF" d="M30.723,55.146c-1.972-1.491-3.862-1.761-6.177,0.613c-1.37,1.405-1.772,2.86-1.413,3.962
			l-0.04,0.042l-1.255-1.227l-2.533,2.596l1.788,1.743l7.524,7.336l2.646-2.71l-4.616-4.501c-1.217-1.188-2.171-2.565-0.702-4.072
			c1.447-1.482,2.953-0.246,4.036,0.81l4.537,4.425l2.723-2.795l-5.116-4.99h0.002C31.65,55.912,31.184,55.496,30.723,55.146z"/>
	</g>
	<polygon fill="#2797CF" points="16.805,88.162 17.08,75.631 46.443,51.215 	"/>
</g>
<path id="XMLID_4_" fill="#FFFFFF" d="M168.029,56.009c-0.498,0.438-1.062,0.805-1.691,1.089c0.541-0.604,0.852-1.388,0.857-2.208
	c-0.506,0.563-1.113,1.048-1.803,1.425c-0.783-0.429-1.742-0.546-2.67-0.25c-1.779,0.568-2.77,2.449-2.211,4.2
	c0.08,0.25,0.186,0.48,0.314,0.695c-2.719,0.724-5.498,0.219-7.699-1.193c-0.127,0.557-0.113,1.153,0.072,1.734
	c0.352,1.101,1.232,1.889,2.277,2.182c-0.533,0.151-1.076,0.167-1.588,0.07c0.006,0.013,0.01,0.026,0.014,0.039
	c0.131,0.407,0.332,0.767,0.586,1.082c0.713,0.866,1.84,1.335,2.992,1.204c-0.248,0.158-0.52,0.289-0.812,0.385
	c-0.209,0.065-0.416,0.11-0.625,0.135c0.812,1.128,2.295,1.666,3.711,1.241c-0.83,1.205-2.057,2.153-3.568,2.637
	c-0.26,0.082-0.521,0.148-0.783,0.201c1.715,0.443,3.576,0.427,5.395-0.151c5.039-1.61,7.02-6.087,6.68-9.97
	c-0.059-0.684-0.189-1.353-0.391-1.982c-0.043-0.138-0.09-0.274-0.139-0.409C167.433,57.517,167.8,56.783,168.029,56.009z"/>
<polygon fill="#43BDEF" points="147.408,76.807 151.359,69.755 175.474,64.748 "/>
<path id="XMLID_5_" fill="#FFFFFF" d="M110.224,11.127l0.436-0.823c0.211-0.402-0.006-0.635-0.193-0.737
	c-0.188-0.097-1.154-0.609-1.154-0.609l0.931-1.763l1.595,0.834c1.766,0.933,1.47,2.461,1.025,3.303l-0.494,0.93l1.021,0.539
	l-0.657,1.245L112.3,14.86l-1.027-0.544c-1.236,2.332-2.725,5.145-2.725,5.145l-2.057-1.09c0,0,1.504-2.841,2.724-5.143
	l-1.528-0.811l0.354-0.845l0.548-1.312L110.224,11.127z"/>
<polygon fill="#6081C4" points="121.632,29.735 119.027,22.201 96.488,13.134 "/>
</svg>
