<?xml version="1.0" encoding="utf-8"?>
<!-- Generator: Adobe Illustrator 16.0.0, SVG Export Plug-In . SVG Version: 6.00 Build 0)  -->
<!DOCTYPE svg PUBLIC "-//W3C//DTD SVG 1.1//EN" "http://www.w3.org/Graphics/SVG/1.1/DTD/svg11.dtd">
<svg version="1.1" id="Objects" xmlns="http://www.w3.org/2000/svg" xmlns:xlink="http://www.w3.org/1999/xlink" x="0px" y="0px"
	 width="136px" height="148px" viewBox="0 0 136 148" enable-background="new 0 0 136 148" xml:space="preserve">
<g>
	<circle fill="#64C5C1" cx="68.852" cy="72.824" r="61.75"/>
	<circle fill="none" cx="68.852" cy="72.824" r="61.75"/>
	<circle fill="none" cx="68.852" cy="72.824" r="61.75"/>
	<circle fill="none" cx="68.852" cy="72.824" r="61.75"/>
	<g>
		<polygon fill="#38A1BA" points="39.428,47.488 37.785,54.515 22.045,39.226 		"/>
		<polygon fill="#43BDEF" points="45.893,46.21 22.045,39.226 39.428,47.488 		"/>
		<polygon fill="#38A1BA" points="34.412,49.067 37.785,54.515 22.045,39.226 		"/>
		<g>
			<path id="XMLID_5_" fill="#3F3D3A" fill-opacity="0.5" d="M27.301,38.932c0.318,0.282,0.682,0.521,1.086,0.7
				c-0.35-0.389-0.547-0.892-0.551-1.419c0.324,0.362,0.715,0.674,1.156,0.916c0.504-0.275,1.119-0.351,1.715-0.161
				c1.146,0.365,1.779,1.573,1.424,2.699c-0.055,0.16-0.119,0.308-0.203,0.446c1.748,0.466,3.531,0.141,4.945-0.77
				c0.082,0.357,0.074,0.741-0.045,1.114c-0.227,0.707-0.793,1.214-1.465,1.402c0.344,0.097,0.693,0.104,1.021,0.045
				c-0.004,0.008-0.008,0.017-0.014,0.021c-0.084,0.265-0.213,0.493-0.377,0.695c-0.457,0.557-1.182,0.855-1.922,0.771
				c0.16,0.104,0.334,0.188,0.521,0.247c0.135,0.042,0.268,0.071,0.4,0.087c-0.521,0.728-1.475,1.07-2.385,0.801
				c0.533,0.771,1.322,1.384,2.293,1.691c0.166,0.055,0.336,0.099,0.504,0.129c-1.104,0.285-2.299,0.274-3.467-0.098
				c-3.238-1.034-4.51-3.911-4.293-6.405c0.039-0.438,0.123-0.87,0.252-1.271c0.027-0.088,0.057-0.18,0.09-0.266
				C27.684,39.9,27.445,39.429,27.301,38.932z"/>
			<path id="XMLID_1_" fill="#FFFFFF" d="M27.438,39.44c0.305,0.269,0.65,0.49,1.035,0.667c-0.33-0.37-0.521-0.853-0.523-1.354
				c0.312,0.345,0.684,0.644,1.105,0.872c0.479-0.263,1.064-0.334,1.635-0.153c1.09,0.351,1.695,1.499,1.354,2.571
				c-0.049,0.153-0.111,0.294-0.189,0.426c1.664,0.443,3.365,0.137,4.713-0.729c0.078,0.341,0.07,0.706-0.043,1.062
				c-0.217,0.674-0.756,1.156-1.395,1.336c0.324,0.096,0.656,0.104,0.973,0.043c-0.002,0.011-0.006,0.019-0.008,0.023
				c-0.08,0.249-0.203,0.47-0.359,0.662c-0.436,0.53-1.125,0.814-1.83,0.735c0.15,0.099,0.316,0.179,0.496,0.234
				c0.129,0.04,0.256,0.067,0.383,0.083c-0.498,0.69-1.402,1.021-2.271,0.76c0.508,0.737,1.26,1.318,2.184,1.614
				c0.16,0.05,0.32,0.091,0.48,0.123c-1.053,0.271-2.189,0.262-3.305-0.093c-3.084-0.985-4.297-3.729-4.09-6.104
				c0.037-0.419,0.117-0.827,0.24-1.214c0.025-0.084,0.055-0.168,0.084-0.25C27.803,40.363,27.576,39.914,27.438,39.44z"/>
		</g>
		<polygon fill="#43BDEF" points="34.412,49.067 22.045,39.226 27.258,54.089 		"/>
	</g>
	<g>
		<polygon fill="#5373A5" points="68.371,27.3 71.188,22.573 57.852,18.358 		"/>
		<polygon fill="#6081C4" points="70.248,19.858 71.188,22.573 57.852,18.358 		"/>
		<polygon fill="#5373A5" points="68.371,27.3 71.648,23.909 57.852,18.358 		"/>
		<path id="XMLID_8_" fill="#3F3D3A" fill-opacity="0.5" d="M66.389,17.021l0.293-0.556c0.143-0.271-0.004-0.428-0.131-0.496
			c-0.125-0.062-0.777-0.411-0.777-0.411l0.627-1.187l1.074,0.562c1.188,0.632,0.99,1.658,0.688,2.229l-0.332,0.626l0.689,0.362
			l-0.441,0.838l-0.291,0.548l-0.689-0.366c-0.832,1.571-1.836,3.465-1.836,3.465l-1.387-0.73c0,0,1.014-1.914,1.836-3.467
			l-1.029-0.545l0.238-0.567l0.367-0.883L66.389,17.021z"/>
		<path id="XMLID_7_" fill="#FFFFFF" d="M66.262,17.13l0.266-0.504c0.131-0.246-0.002-0.389-0.117-0.451
			c-0.111-0.06-0.707-0.373-0.707-0.373l0.57-1.079l0.977,0.514c1.08,0.568,0.898,1.507,0.631,2.021l-0.307,0.569l0.625,0.33
			l-0.398,0.762l-0.268,0.498l-0.629-0.333c-0.758,1.428-1.668,3.148-1.668,3.148l-1.26-0.666c0,0,0.92-1.739,1.668-3.148
			l-0.938-0.496l0.219-0.518l0.334-0.806L66.262,17.13z"/>
		<polygon fill="#6081C4" points="73.244,28.521 71.648,23.909 57.852,18.358 		"/>
	</g>
	<g>
		<polygon fill="#5373A5" points="80.676,122.806 76.922,128.859 94.436,111.873 		"/>
		<polygon fill="#5373A5" points="75.104,121.046 76.922,128.859 94.436,111.873 		"/>
		<polygon fill="#6081C4" points="67.914,119.62 94.436,111.873 75.104,121.046 		"/>
		<g>
			<path id="XMLID_11_" fill="#3F3D3A" fill-opacity="0.5" d="M83.324,113.089l-0.404-0.865c-0.197-0.422,0.033-0.648,0.232-0.745
				c0.197-0.092,1.217-0.567,1.217-0.567l-0.867-1.854l-1.682,0.774c-1.854,0.87-1.629,2.453-1.215,3.339l0.459,0.979l-1.074,0.5
				l0.613,1.311l0.402,0.854l1.08-0.507c1.146,2.454,2.533,5.415,2.533,5.415l2.168-1.016c0,0-1.398-2.991-2.535-5.412l1.604-0.755
				l-0.32-0.886l-0.49-1.372L83.324,113.089z"/>
			<path id="XMLID_9_" fill="#FFFFFF" d="M83.51,113.263l-0.367-0.788c-0.182-0.384,0.033-0.592,0.213-0.68
				c0.18-0.081,1.105-0.515,1.105-0.515l-0.787-1.688l-1.525,0.705c-1.688,0.79-1.484,2.229-1.107,3.034l0.416,0.89l-0.973,0.458
				l0.555,1.188l0.365,0.777l0.984-0.459c1.045,2.229,2.307,4.922,2.307,4.922l1.969-0.924c0,0-1.271-2.718-2.307-4.922l1.463-0.687
				l-0.293-0.804l-0.451-1.248L83.51,113.263z"/>
		</g>
		<polygon fill="#6081C4" points="80.676,122.806 94.436,111.873 88.629,128.394 		"/>
	</g>
	<g>
		<polygon fill="#2797CF" points="19.893,97.102 17.721,91.317 12.955,91.49 12.955,91.466 17.775,91.26 19.896,96.93 21.699,92.14 
			21.736,92.166 27.832,96.45 27.832,96.45 21.734,92.247 		"/>
		<polygon fill="#2581A5" points="17.771,91.269 19.902,97.082 40.834,80.503 		"/>
		<polygon fill="#2797CF" points="12.955,91.466 40.834,80.503 17.771,91.269 		"/>
		<polygon fill="#2581A5" points="21.699,92.142 19.902,97.082 40.834,80.503 		"/>
		<g>
			<g opacity="0.5">
				<polygon id="XMLID_18_" fill="#3F3D3A" points="20.564,87.34 22.486,91.55 24.492,90.633 22.412,86.086 21.873,84.903 
					19.867,85.82 				"/>
				<circle id="XMLID_17_" fill="#3F3D3A" cx="20.021" cy="83.5" r="1.102"/>
				<path id="XMLID_16_" fill="#3F3D3A" d="M29.225,83.674c-0.631-1.021-1.439-1.472-2.898-0.805
					c-0.861,0.396-1.301,0.979-1.332,1.543l-0.021,0.012l-0.355-0.771l-1.598,0.729l0.502,1.104l2.115,4.628l1.67-0.764l-1.297-2.84
					c-0.342-0.75-0.533-1.539,0.395-1.963c0.912-0.416,1.375,0.405,1.684,1.071l1.271,2.792l1.721-0.786l-1.438-3.148v0.001
					C29.508,84.181,29.369,83.911,29.225,83.674z"/>
			</g>
			<g>
				<polygon id="XMLID_15_" fill="#FFFFFF" points="20.578,87.559 22.445,91.646 24.395,90.756 22.377,86.339 21.852,85.191 
					19.902,86.082 				"/>
				<circle id="XMLID_14_" fill="#FFFFFF" cx="20.051" cy="83.828" r="1.07"/>
				<path id="XMLID_13_" fill="#FFFFFF" d="M28.988,83.997c-0.609-0.99-1.396-1.429-2.812-0.781
					c-0.838,0.385-1.264,0.954-1.291,1.499l-0.025,0.011l-0.342-0.751l-1.553,0.709l0.488,1.068l2.055,4.495l1.621-0.74
					l-1.262-2.758c-0.332-0.728-0.516-1.494,0.387-1.905c0.887-0.402,1.336,0.396,1.633,1.04l1.238,2.713l1.668-0.765l-1.396-3.057
					l0,0C29.266,84.49,29.133,84.229,28.988,83.997z"/>
			</g>
		</g>
		<polygon fill="#2797CF" points="21.699,92.142 40.834,80.503 27.832,96.45 		"/>
	</g>
	<g>
		<polygon fill="#38A1BA" points="77.709,45.696 75.744,40.475 89.809,38.659 		"/>
		<polygon fill="#43BDEF" points="77.17,37.935 75.744,40.475 89.809,38.659 		"/>
		<polygon fill="#38A1BA" points="77.709,45.696 75.045,41.725 89.809,38.659 		"/>
		<g>
			<path id="XMLID_20_" fill="#3F3D3A" fill-opacity="0.5" d="M83.133,36.021c-0.211,0.186-0.447,0.34-0.713,0.459
				c0.229-0.258,0.357-0.584,0.359-0.933c-0.213,0.237-0.469,0.441-0.758,0.604c-0.332-0.185-0.734-0.23-1.125-0.106
				c-0.75,0.24-1.166,1.031-0.932,1.771c0.029,0.104,0.076,0.199,0.133,0.293c-1.146,0.305-2.316,0.092-3.244-0.504
				c-0.053,0.232-0.047,0.484,0.031,0.729c0.145,0.464,0.52,0.796,0.959,0.919c-0.229,0.063-0.453,0.07-0.668,0.029
				c0.002,0.006,0.004,0.012,0.006,0.017c0.055,0.172,0.139,0.323,0.246,0.456c0.301,0.364,0.771,0.562,1.26,0.507
				c-0.104,0.066-0.219,0.121-0.342,0.161c-0.088,0.028-0.176,0.047-0.268,0.061c0.346,0.475,0.971,0.698,1.562,0.521
				c-0.35,0.507-0.865,0.907-1.502,1.111c-0.109,0.033-0.221,0.062-0.33,0.084c0.723,0.187,1.506,0.18,2.273-0.063
				c2.121-0.679,2.955-2.562,2.812-4.196c-0.025-0.288-0.08-0.57-0.166-0.838c-0.018-0.058-0.037-0.113-0.057-0.172
				C82.881,36.655,83.035,36.347,83.133,36.021z"/>
			<path id="XMLID_19_" fill="#FFFFFF" d="M83.043,36.354c-0.201,0.179-0.43,0.323-0.682,0.438c0.217-0.242,0.342-0.557,0.344-0.886
				c-0.201,0.227-0.443,0.421-0.723,0.569c-0.312-0.173-0.699-0.22-1.07-0.101c-0.715,0.229-1.109,0.982-0.889,1.685
				c0.033,0.104,0.074,0.193,0.127,0.279c-1.092,0.291-2.207,0.088-3.09-0.479c-0.051,0.224-0.045,0.463,0.029,0.692
				c0.141,0.442,0.492,0.76,0.914,0.876c-0.219,0.062-0.436,0.067-0.641,0.028c0.002,0.005,0.004,0.01,0.004,0.016
				c0.057,0.163,0.139,0.311,0.236,0.437c0.285,0.348,0.738,0.536,1.199,0.48c-0.098,0.063-0.207,0.116-0.324,0.154
				c-0.084,0.026-0.168,0.044-0.252,0.055c0.326,0.452,0.922,0.668,1.49,0.498c-0.334,0.482-0.826,0.863-1.434,1.061
				c-0.104,0.032-0.211,0.06-0.312,0.081c0.688,0.178,1.434,0.171,2.164-0.062c2.021-0.646,2.814-2.439,2.68-4
				c-0.021-0.271-0.076-0.543-0.156-0.796c-0.018-0.055-0.033-0.11-0.057-0.164C82.803,36.959,82.949,36.665,83.043,36.354z"/>
		</g>
		<polygon fill="#43BDEF" points="72.627,46.042 75.045,41.725 89.809,38.659 		"/>
	</g>
	<g>
		<polygon fill="#2581A5" points="94.006,31.255 91.441,28.997 98.521,23.971 		"/>
		<polygon fill="#2797CF" points="91.48,27.214 91.441,28.997 98.521,23.971 		"/>
		<polygon fill="#2581A5" points="94.006,31.255 91.424,29.874 98.521,23.971 		"/>
		<g opacity="0.5">
			<polygon id="XMLID_39_" fill="#3F3D3A" points="91.305,28.088 93.006,29.748 93.799,28.938 91.957,27.143 91.479,26.676 
				90.688,27.487 			"/>
			<circle id="XMLID_38_" fill="#3F3D3A" cx="90.328" cy="26.348" r="0.566"/>
			<path id="XMLID_37_" fill="#3F3D3A" d="M94.773,24.723c-0.492-0.371-0.963-0.438-1.539,0.152c-0.34,0.35-0.439,0.712-0.352,0.986
				l-0.014,0.011l-0.311-0.306l-0.631,0.646l0.443,0.435l1.873,1.826l0.66-0.675l-1.148-1.12c-0.305-0.296-0.541-0.639-0.176-1.014
				c0.359-0.369,0.734-0.062,1.006,0.201l1.129,1.102l0.678-0.695l-1.273-1.239h0.002C95.006,24.913,94.889,24.81,94.773,24.723z"/>
		</g>
		<g>
			<polygon id="XMLID_36_" fill="#FFFFFF" points="91.352,28.188 93.006,29.802 93.771,29.014 91.986,27.271 91.521,26.818 
				90.756,27.606 			"/>
			<circle id="XMLID_35_" fill="#FFFFFF" cx="90.406" cy="26.499" r="0.55"/>
			<path id="XMLID_34_" fill="#FFFFFF" d="M94.723,24.921c-0.479-0.36-0.936-0.426-1.494,0.148c-0.33,0.34-0.428,0.688-0.342,0.958
				l-0.012,0.01l-0.303-0.296l-0.609,0.627l0.432,0.422l1.818,1.773l0.641-0.655l-1.117-1.089c-0.293-0.287-0.52-0.62-0.168-0.984
				c0.354-0.358,0.713-0.06,0.979,0.196l1.098,1.066l0.658-0.676l-1.238-1.206h0.002C94.945,25.106,94.832,25.006,94.723,24.921z"/>
		</g>
		<polygon fill="#2797CF" points="91.355,32.903 91.424,29.874 98.521,23.971 		"/>
	</g>
	<g>
		<g>
			<g>
				<g>
					<defs>
						<circle id="SVGID_1_" cx="68.852" cy="72.824" r="61.75"/>
					</defs>
					<clipPath id="SVGID_2_">
						<use xlink:href="#SVGID_1_"  overflow="visible"/>
					</clipPath>
					<g clip-path="url(#SVGID_2_)">
						<path fill="#FFD7B6" d="M49.494,120.6l-12.328,2.396l0.648-7.324l-2.658-10.695c-0.047-0.186-0.057-0.379-0.027-0.565
							l2.096-15.277c0.068-0.512,0.363-0.965,0.803-1.233l12.363-7.64c0.17-0.104,0.355-0.182,0.555-0.223l10.561-2.205
							c1.15-0.24,2.279,0.498,2.52,1.651l0.699,3.343l0.174-0.039c0.709-0.146,1.408,0.309,1.555,1.02l0.777,3.726l0,0
							c0.691-0.146,1.371,0.299,1.516,0.991l0.533,2.558c0.145,0.672-0.27,1.334-0.938,1.502l0,0
							c-0.225,0.059-0.365,0.279-0.322,0.506l0.166,0.875c0.254,1.346-0.615,2.646-1.957,2.926l-7.676,1.604
							c-0.717,0.147-1.275,0.713-1.42,1.43l-1.576,7.818c-0.592,2.932-1.711,5.717-3.16,8.336
							C51.68,117.363,51.117,117.986,49.494,120.6z"/>
						<polygon fill="#FFB89C" points="67.23,87.527 61.961,88.754 62.836,87.352 67.012,86.479 						"/>
						<path fill="#FFB89C" d="M68.342,92.578l-9.797,2.047l0.076-0.506l0.678-1.09l9.979-1.953
							C69.279,91.076,69.439,92.35,68.342,92.578z"/>
						<polygon fill="#FFC4A3" points="64.725,82.824 64.26,82.92 63.771,81.791 64.479,81.643 						"/>
						<polygon fill="#FFB89C" points="55.279,84.795 51.225,85.643 50.979,84.463 56.355,83.34 						"/>
						<path fill="#56808F" d="M34.506,126.633l19.434-1.18c1.062-0.047,1.965,0.766,2.029,1.826l1.412,22.771l-23.277,1.443
							l-1.434-23.131C32.629,127.299,33.441,126.682,34.506,126.633z"/>
						<path fill="#90FFDE" d="M52.512,125.516l-0.297-5.01c-0.031-0.51-0.469-0.896-0.977-0.867l-15.559,0.929
							c-0.508,0.026-0.896,0.467-0.865,0.975l0.297,5.01L52.512,125.516z"/>
						
							<rect x="43.07" y="116.636" transform="matrix(-0.0603 -0.9982 0.9982 -0.0603 -78.7313 176.5802)" fill="#86E5C6" width="1.36" height="17.426"/>
						<polygon fill="#E6E7E8" points="39.285,82.568 45.902,52.742 115.863,86.484 						"/>
						<polygon fill="#F1F1F2" points="51.383,27.467 45.902,52.742 115.863,86.484 						"/>
						<polygon fill="#DBDCDD" points="39.285,82.568 38.949,56.379 115.863,86.484 						"/>
						<polygon fill="#BFBFBF" points="43.236,79.613 48.221,70.832 103.254,85.418 						"/>
						<polygon fill="#F1F1F2" points="14.936,68.955 38.949,56.379 115.863,86.484 						"/>
						<g>
							<g>
								<path fill="#FFD7B6" d="M110.016,46.365l-1.154-3.808c-0.373-1.221-1.645-1.934-2.881-1.608l-0.842,0.219
									c-1.256,0.328-2.021,1.602-1.715,2.863l0.623,2.588c0.121,0.502-0.561,0.772-0.818,0.332l-5.557-8.633
									c-0.789-1.226-2.414-1.58-3.646-0.808l-0.049,0.031c-1.166,0.736-1.572,2.246-0.934,3.469l8.195,15.664
									c0.174,0.334-0.199,0.688-0.523,0.496l-2.562-1.502c-0.305-0.178-0.668-0.225-1.006-0.125l-4.361,1.268
									c-0.15,0.044-0.277,0.16-0.34,0.312l-2.436,6.283c-0.191,0.494-0.062,1.057,0.324,1.418l0.775,0.721l-1.154,1.295
									c-0.158,0.18-0.182,0.445-0.053,0.648l3.697,5.85l9.535,4.396c0.703,0.319,1.227,0.938,1.436,1.684l1.838,6.551
									l14.809-3.854l-2.172-8.338l0.818-8.043l-4.602-17.656c-0.252-0.967-1.238-1.547-2.205-1.295l-1.574,0.41
									C110.855,47.354,110.203,46.99,110.016,46.365z M101.188,67.68l-1.895,1.568l-2.742-0.512l-0.514-1.963
									c-0.127-0.482-0.475-0.882-0.938-1.064l-1.83-0.723l1.559-0.406c0.199-0.053,0.365-0.187,0.463-0.363l1.404-2.58l3.52,2.31
									L101.188,67.68z"/>
							</g>
							<path fill="#FFB89C" d="M101.787,44.701l7.41,13.414c0.049,0.09,0.164,0.121,0.254,0.065l0.855-0.491
								c0.086-0.054,0.117-0.162,0.062-0.25l-6.514-11.593c0,0,0.16,0.482,0.145,0.9c-0.018,0.35-0.438,0.512-0.688,0.27
								C103.002,46.713,102.514,46.066,101.787,44.701z"/>
							<path fill="#FFB89C" d="M110.139,46.635l4.111,11.453c0.115,0.322,0.459,0.504,0.789,0.418l0,0
								c0.375-0.1,0.588-0.496,0.457-0.861l-3.725-10.526C111.771,47.115,110.818,47.561,110.139,46.635z"/>
							<path fill="#90FFDE" d="M124.342,87.48l-18.834,4.936c-1.023,0.285-1.629,1.338-1.359,2.365l4.943,18.881l22.545-5.875
								l-5.01-19.232C126.33,87.529,125.367,87.195,124.342,87.48z"/>
							<path fill="#90FFDE" d="M107.033,92.607l-1.43-5.435c-0.129-0.492,0.164-0.996,0.656-1.127l15.068-3.967
								c0.492-0.131,0.996,0.162,1.125,0.656l1.436,5.432L107.033,92.607z"/>
							
								<rect x="114.485" y="80.462" transform="matrix(-0.2544 -0.9671 0.9671 -0.2544 58.2136 223.2365)" fill="#86E5C6" width="1.359" height="17.429"/>
						</g>
						<g>
							<path fill="#FFD7B6" d="M55.896,84.863c0,0,3.098-4.244,4.426-3.865c1.326,0.379,1.863,0.229,2.438,1.229
								c0.572,1,1.346,2.291-0.689,4.957c-2.033,2.668-2.033,2.668-2.033,2.668L55.896,84.863z"/>
							<path fill="#FFB89C" d="M57.928,98.619l-0.312,0.396c-0.178,0.229-0.311,0.482-0.4,0.759l-0.34,1.032l-0.32-1.862
								c-0.09-0.511-0.09-1.029-0.002-1.539l0.604-3.523l5.324-8.938c0.59-0.992,0.318-2.275-0.625-2.941l0,0
								c-0.988-0.699-2.35-0.477-3.062,0.498l-6.955,9.473c-0.531,0.729-1.504,0.978-2.318,0.592L43.434,89.7
								c-0.447-0.211-0.605-0.771-0.334-1.183l0,0c0.225-0.348,0.674-0.469,1.043-0.28l5.328,2.653
								c0.553,0.275,1.221,0.113,1.588-0.381l6.586-8.908c1.221-1.651,3.547-2.008,5.203-0.795l0,0
								c1.574,1.154,1.994,3.326,0.963,4.98l-5.092,8.707L57.928,98.619z"/>
						</g>
						<path fill="#F1F1F2" d="M89.111,62.111l3.381,2.967c0,0-0.195,0.119-0.842,0.295c-0.266,0.074-0.535,0.246-0.664,0.256
							C89.309,65.756,89.111,62.111,89.111,62.111z"/>
						<path fill="#56808F" d="M105.512,92.074l18.992-4.699c1.041-0.24,2.082,0.398,2.338,1.436l5.537,22.252l-20.707,11.884
							l-7.66-28.822C103.777,93.074,104.469,92.316,105.512,92.074z"/>
					</g>
				</g>
			</g>
		</g>
	</g>
</g>
</svg>
